<?xml version="1.0" encoding="utf-8"?>
<!-- Generator: Adobe Illustrator 19.0.0, SVG Export Plug-In . SVG Version: 6.00 Build 0)  -->
<svg version="1.1"
	 id="svg3969" xmlns:sodipodi="http://sodipodi.sourceforge.net/DTD/sodipodi-0.dtd" xmlns:cc="http://creativecommons.org/ns#" xmlns:dc="http://purl.org/dc/elements/1.1/" xmlns:svg="http://www.w3.org/2000/svg" xmlns:inkscape="http://www.inkscape.org/namespaces/inkscape" xmlns:rdf="http://www.w3.org/1999/02/22-rdf-syntax-ns#" inkscape:output_extension="org.inkscape.output.svg.inkscape" sodipodi:docname="IIT_Bombay_Logo.svg" sodipodi:version="0.32" inkscape:version="0.46"
	 xmlns="http://www.w3.org/2000/svg" xmlns:xlink="http://www.w3.org/1999/xlink" x="0px" y="0px" viewBox="1964.8 523 255.3 248.8"
	 style="enable-background:new 1964.8 523 255.3 248.8;" xml:space="preserve">
<style type="text/css">
	.st0{fill:#004F9F;}
</style>
<defs>
	
	
		<inkscape:perspective  id="perspective4256" inkscape:vp_x="0 : 1056.25 : 1" inkscape:vp_y="0 : 1000 : 0" sodipodi:type="inkscape:persp3d" inkscape:vp_z="2160 : 1056.25 : 1" inkscape:persp3d-origin="1080 : 704.16667 : 1">
		</inkscape:perspective>
</defs>
<sodipodi:namedview  bordercolor="#666666" inkscape:zoom="0.21869822" inkscape:cy="1056.25" inkscape:cx="1080" objecttolerance="10.0" pagecolor="#ffffff" gridtolerance="10.0" id="base" showgrid="false" guidetolerance="10.0" borderopacity="1.0" inkscape:current-layer="svg3969" inkscape:window-y="51" inkscape:window-x="23" inkscape:window-height="669" inkscape:window-width="640" inkscape:pageshadow="2" inkscape:pageopacity="0.0">
	</sodipodi:namedview>
<g id="_x23_ffffffff">
</g>
<g id="_x23_fcfbfbff">
</g>
<g id="_x23_fefdfeff">
</g>
<g id="_x23_fcfcfbff">
</g>
<g id="_x23_fdfefdff">
</g>
<g id="_x23_fbfbfaff">
</g>
<g id="_x23_fefefeff">
</g>
<g id="_x23_fcfbfaff">
</g>
<g id="_x23_fdfdfcff">
</g>
<g id="_x23_fdfefeff">
</g>
<g id="_x23_fcfcfcff">
</g>
<g id="_x23_fdfdfdff">
</g>
<g id="_x23_fefefcff">
</g>
<g id="_x23_fefefdff">
</g>
<g id="_x23_fcfbf8ff">
</g>
<g id="_x23_fdfcfcff">
</g>
<g id="_x23_fefffeff">
</g>
<g id="_x23_fbfaf9ff">
</g>
<g id="_x23_fcfafbff">
</g>
<g id="_x23_fcfdfbff">
</g>
<g id="_x23_fefdfcff">
</g>
<g id="_x23_fefdfdff">
</g>
<g id="_x23_fdfdfbff">
</g>
<g id="_x23_fbfafaff">
</g>
<g id="_x23_fcfcfaff">
</g>
<g id="_x23_fcfdfcff">
</g>
<g id="_x23_fdfcfbff">
</g>
<g>
	<g id="_x23_1f1a17ff">
		<path id="path3973" class="st0" d="M2079.5,523.6c1.4,0,2.7-0.2,4.1-0.4c0.9,0,1.8-0.2,2.7-0.2c3.9-0.1,7.7-0.1,11.6,0
			c3.3,0.2,6.6,0.5,9.8,0.9c1.4,6,2.9,12,4.3,18.1c5.7,1,11.2,2.6,16.6,4.4c2.3-2.3,4.6-4.6,7-6.9c2.1-2.1,4.1-4.1,6.2-6.2
			c0.1-0.1,0.3-0.3,0.5-0.2c8.7,3.7,17,8.2,24.6,13.9c-0.2,1.3-0.7,2.5-1,3.8c-1.1,3.8-2.2,7.6-3.3,11.5c-0.2,0.8-0.5,1.6-0.7,2.4
			c1.1,1,2.3,1.9,3.4,2.9c3.1,2.7,6,5.7,8.8,8.7c0.1,0.2,0.4,0,0.6,0c3.5-1.4,7-2.7,10.5-4c2-0.8,4.1-1.6,6.1-2.3
			c1.8,2.3,3.5,4.5,5.2,6.9c3.8,5.4,7.2,11.1,10.2,17c-2.1,2.3-4.4,4.5-6.6,6.8c-1.8,1.9-3.7,3.8-5.5,5.7c-0.2,0.2-0.5,0.4-0.6,0.7
			c0,0.6,0.4,1.1,0.6,1.6c1,2.6,2.2,5.2,3,7.9c0.5,1.7,1.1,3.5,1.5,5.2c5.9,0.8,11.9,1.6,17.8,2.4c0.2,0,0.4,0.1,0.5,0.3
			c1.3,6.1,2.1,12.3,2.5,18.4c0.1,1.3,0.2,2.6,0.2,3.9c0.2,1.8,0.1,3.5,0.1,5.3c-5.9,1.9-11.7,4-17.6,5.8
			c-0.5,5.3-1.2,10.5-2.3,15.7c4.5,3.2,9.2,6.3,13.5,9.8c0.5,0.4,1,0.8,1.5,1.3c0.1,0.5-0.1,0.9-0.2,1.4
			c-2.4,8.9-6.3,17.4-10.7,25.5c-5.3-1.2-10.6-2.3-15.9-3.5c-0.7-0.1-1.4-0.4-2.1-0.3c-0.8,1.1-1.4,2.3-2.2,3.4
			c-2.5,3.8-5.2,7.4-8,11c-2.3-1.8-4.6-3.7-7-5.5c-2.2-1.8-4.5-3.5-6.7-5.4c-3.6-3-7.2-6-10.8-9c0.8-1.1,1.7-2.1,2.6-3.2
			c0.9-0.9,1.6-2,2.4-3.1c5.8-8,10-17.1,12.5-26.7c0.1-0.5,0.3-1,0.3-1.6c0,0.1,0,0.2,0,0.2c0.8-3.5,1.4-7.1,1.7-10.7
			c0.4-3.7,0.3-7.4,0.3-11.1c-0.1-0.8-0.1-1.6-0.1-2.4c-0.3-3.2-0.7-6.4-1.4-9.6c-2.6-12.6-8.4-24.6-16.6-34.5
			c-7.3-8.8-16.5-16-26.8-20.9c-12.3-5.9-26.2-8.5-39.7-7.5c-9.9,0.7-19.6,3.3-28.5,7.7c-10.1,4.9-19,11.9-26.2,20.5
			c-8.1,9.7-13.8,21.3-16.5,33.6c-0.7,3.3-1.2,6.7-1.5,10c-0.3,3.3-0.3,6.7-0.2,10c0.4,7.6,2,15,4.6,22.2c3.6,10.1,9,19.5,16,27.6
			c0.2,0.2,0.1,0.5-0.1,0.6c-8,6.4-15.9,12.9-23.8,19.3c-1.7-2.1-3.4-4.3-5.1-6.4c-2-2.6-3.9-5.3-5.7-8.1c-0.1-0.2-0.3-0.5-0.6-0.4
			c-6.2,1.1-12.4,2.2-18.6,3.3c-4.8-8.6-8.5-17.9-11.1-27.4c5.3-3.3,10.7-6.5,16-9.8c0.1-0.4-0.1-0.8-0.2-1.2
			c-1.1-5.2-2-10.4-2.2-15.7c-5.5-1.6-10.9-3.2-16.4-4.8c-0.6-0.2-1.1-0.3-1.7-0.5c-0.1-2.1,0-4.2,0-6.3c0-1.4,0-2.8,0.2-4.2
			c0-1.1,0.1-2.1,0.2-3.2c0.5-5,1.3-10,2.5-14.8c4.7-0.6,9.4-1.2,14.1-1.8c1.6-0.2,3.2-0.4,4.8-0.7c0-0.6,0.3-1.2,0.5-1.9
			c1.3-4.5,2.9-8.9,4.7-13.2c0.1-0.2,0.1-0.4-0.1-0.5c-1.3-1.4-2.7-2.7-4-4.1c-2-2.1-4-4.2-6.1-6.3c-0.9-1-1.9-1.9-2.8-2.9
			c2.9-6.1,6.5-11.9,10.6-17.3c1.9-2.6,4.1-5,6.2-7.5c4.1,1.9,8.2,3.9,12.3,5.8c1.4,0.7,2.9,1.3,4.3,2.1c3.8-3.8,7.8-7.6,12-11
			c0.2-0.1,0.3-0.3,0.4-0.4c-0.9-2.8-1.9-5.7-2.8-8.5c-1-3-2.1-6.1-3-9.1c8.2-5.4,16.7-10.5,25.8-14.2c0.2-0.1,0.5-0.1,0.7,0.1
			c3.7,4.1,7.4,8.3,11.1,12.4c0.3,0.4,0.7,0.8,1.1,1.2c0.2,0,0.4,0,0.5-0.1c5.3-1.9,10.9-3,16.5-4c0.9-3.3,1.8-6.6,2.7-9.8
			C2077.9,529.2,2078.7,526.4,2079.5,523.6 M2085.3,527.8c-0.7,0.1-1.4,0.1-2.1,0.1c-1.7,6-3.3,12.1-5,18.1c-1,0.3-2,0.4-3.1,0.5
			c-3.2,0.6-6.4,1.2-9.5,2c-3.1,0.8-6.1,1.7-9,2.9c-0.2,0.1-0.5,0.2-0.6-0.1c-4-4.5-7.9-8.9-11.9-13.3c-0.1-0.2-0.4-0.3-0.6-0.1
			c-6.7,3-13,6.6-19.1,10.6c0.1,0.8,0.5,1.5,0.7,2.2c1.7,5,3.3,10.1,5,15.1c-1.3,1.1-2.6,2.1-3.9,3.3c-2.2,1.9-4.3,3.8-6.5,5.8
			c-2.2,2.1-4.3,4.3-6.5,6.4c-5.5-2.6-10.9-5.2-16.4-7.8c-4.6,5.5-8.8,11.5-12.1,17.9c-0.1,0.2-0.2,0.5,0,0.6
			c0.8,0.8,1.6,1.6,2.4,2.4c2.1,2.3,4.4,4.5,6.5,6.7c1.3,1.3,2.6,2.6,3.9,4c-0.1,0.6-0.5,1.1-0.7,1.7c-2.8,6.1-4.9,12.4-6.4,18.9
			c-2.4,0.4-4.8,0.6-7.2,0.9c-3.9,0.5-7.7,1-11.6,1.5c-1.1,5.1-1.7,10.3-2,15.4c0,1.5,0,3-0.1,4.5c0,0.3-0.1,0.7,0.2,0.9
			c6,1.7,11.9,3.5,17.9,5.2c0.1,5.8,0.8,11.7,2.1,17.4c0.3,1.8,0.9,3.5,1.1,5.2c-5.3,3.2-10.6,6.4-15.8,9.7c0.1,0.6,0.3,1.2,0.5,1.8
			c2,6.3,4.5,12.4,7.6,18.3c1.1-0.1,2.2-0.4,3.2-0.6c3.5-0.6,7-1.3,10.6-1.9c1.6-0.3,3.3-0.7,4.9-0.8c2.7,4.8,5.9,9.3,9.4,13.5
			c3.7-3,7.4-6,11-9c1.9-1.6,3.9-3.1,5.8-4.8c-5-6.4-9.1-13.6-12.3-21.1c-3.2-7.7-5.5-15.9-6.3-24.3c-0.4-3.4-0.4-6.8-0.3-10.2
			c0-0.8,0-1.6,0.1-2.4c0-1.5,0.3-3,0.4-4.5c0.4-2.8,0.8-5.6,1.5-8.4c2.8-12.3,8.4-23.9,16.2-33.7c5.6-7,12.3-13.1,19.7-18
			c10.1-6.6,21.6-11,33.5-12.7c1.8-0.3,3.7-0.5,5.5-0.6c1.2-0.2,2.3-0.1,3.5-0.2c2.2,0,4.4-0.1,6.6,0c11.8,0.5,23.4,3.5,34,8.8
			c10.5,5.3,19.8,12.8,27.2,21.9c7.7,9.4,13.3,20.5,16.3,32.3c0.3,1.2,0.7,2.3,0.7,3.5c0-0.1,0-0.2,0-0.2c0.6,3.3,1.2,6.6,1.5,9.9
			c0.2,0.9,0.1,1.9,0.2,2.9c0.1,2.3,0.1,4.6,0.1,6.9c-0.3,11.6-3.2,23.1-8.2,33.5c-2.7,5.6-5.9,10.9-9.8,15.7c1.3,1.1,2.7,2.2,4,3.3
			c2.1,1.7,4.2,3.6,6.4,5.2c2.2,1.8,4.5,3.5,6.7,5.3c1.6-2.1,3.2-4.3,4.6-6.5c1.5-2.2,2.8-4.5,4.2-6.7c4.6,1.1,9.1,2,13.7,3
			c1.4,0.2,2.7,0.7,4.1,0.8c2.9-5.7,5.5-11.5,7.4-17.5c0.2-0.7,0.5-1.3,0.6-2.1c0-0.4-0.4-0.5-0.6-0.7c-4.7-3.6-9.6-6.8-14.3-10.3
			c1.8-6.8,2.5-13.8,3.2-20.8c0-0.3,0.3-0.4,0.5-0.5c5.6-1.8,11.1-3.7,16.7-5.5c0-3.6-0.3-7.3-0.6-10.9c-0.3-3.2-0.8-6.4-1.3-9.6
			c-3-0.5-6.1-0.9-9.1-1.3c-3-0.3-6-0.8-9.1-1.2c-0.7-3-1.5-6-2.4-8.9c-0.4-1.3-0.9-2.5-1.4-3.7c-0.9-2.3-1.8-4.6-2.8-6.9
			c-0.1-0.2-0.2-0.5,0-0.7c1.3-1.4,2.7-2.7,4-4.1c2.1-2.1,4.2-4.2,6.2-6.3c0.7-0.8,1.5-1.4,2.1-2.2c-0.5-1.2-1.3-2.3-1.9-3.5
			c-2.8-4.8-5.9-9.5-9.3-14c-2.3,0.8-4.6,1.8-7,2.6c-3.3,1.3-6.6,2.5-9.8,3.8c-3.1-3.6-6.3-7-9.8-10.2c-2.1-1.9-4.3-3.7-6.6-5.4
			c0.9-2.9,1.7-5.7,2.5-8.6c0.8-3,1.8-5.9,2.5-8.9c-5.7-4-11.8-7.3-18-10.1c-0.2-0.1-0.5-0.1-0.6,0.1c-4.3,4.2-8.5,8.5-12.9,12.6
			c-0.2,0.2-0.5,0.1-0.7,0c-6.9-2.5-13.9-4.5-21.1-5.6c-1.1-4.4-2.1-8.7-3.2-13.1c-0.3-1.6-0.8-3.2-1.1-4.8
			c-2.8-0.2-5.6-0.5-8.5-0.5c-1.5-0.2-3-0.1-4.5-0.1c-0.9,0-1.8,0-2.7,0.1C2087.3,527.8,2086.3,527.7,2085.3,527.8z"/>
		<path id="path3975" class="st0" d="M2083.3,714.1c1.5-0.2,2.9-0.1,4.4-0.1c3.5,0,6.9,0,10.4,0.1c1.1,0.2,2.2,0.1,3.3,0.2
			c0.7,0.1,1.5,0,2.2,0.2c22.5,1.5,44.8,7.2,65.4,16.5c-1.1,2.6-2.4,5.1-3.5,7.7c2.8,1.2,5.6,2.6,8.3,4.1c1.6,0.8,3,1.7,4.5,2.6
			c0.4,0.3,0.9,0.5,1.3,0.8c-0.1,0.5-0.4,0.9-0.6,1.4c-4.3,8.1-8.7,16.2-13,24.3c-2.5-1.1-4.9-2.3-7.4-3.3c-6.3-2.7-12.8-5-19.4-6.8
			c-1.6-0.4-3.2-0.8-4.7-1.2c1-4,2-7.9,2.9-11.9c-6.6-1.7-13.4-3-20.2-4c-4.1-0.6-8.1-1-12.2-1.3c-0.8-0.1-1.5,0-2.3-0.2
			c-1-0.1-2.1,0-3.1-0.2c-1.3-0.1-2.7,0-4-0.1c-2.1-0.2-4.1-0.1-6.2-0.1c-0.8,0-1.6,0.1-2.4,0.1c-1.3,0-2.6,0-3.9,0.1
			c-12.5,0.5-25,2.3-37.2,5.2c0.9,4,2,8,3,12c-2.8,0.8-5.6,1.4-8.4,2.3c-7,2.1-13.8,4.8-20.4,7.8c-0.9,0.4-1.8,0.9-2.8,1.2
			c-4.6-8.5-9.1-17.1-13.8-25.7c1.6-1,3.1-2,4.8-2.9c3.1-1.6,6.1-3.3,9.4-4.6c-0.3-0.9-0.8-1.7-1.2-2.6c-0.8-1.7-1.6-3.4-2.4-5.1
			c12.2-5.6,25-9.8,38-12.6c6.8-1.5,13.7-2.6,20.6-3.2c2.3-0.3,4.6-0.4,6.9-0.6C2080.7,714.3,2082,714.1,2083.3,714.1 M2083.8,718.6
			c-1.1,0.1-2.2,0.1-3.3,0.2c-20.8,1.2-41.3,6.1-60.5,14.3c2.5,5.3,5,10.6,7.5,15.9c14.5-4.8,29.6-8.1,44.8-9.5
			c1.4-0.2,2.9-0.2,4.3-0.4c0.8,0,1.5,0,2.3-0.2c1.4,0,2.7-0.2,4.1-0.2c0.9,0,1.8-0.2,2.7-0.1c4.3,0,8.6-0.1,12.8,0
			c0.8,0.1,1.6,0.1,2.4,0.1c17.2,0.8,34.4,4,50.8,9.6c1.3,0.4,2.5,1,3.8,1.4c0.5-0.8,0.8-1.7,1.2-2.5c1.7-3.6,3.3-7.1,4.9-10.7
			c0.5-1.1,1.1-2.1,1.4-3.2c-19.6-8.4-40.8-13.3-62.1-14.5c-1.2,0-2.5-0.2-3.7-0.2c-0.8,0-1.7,0-2.5,0c-2-0.2-3.9-0.1-5.9-0.1
			C2087.1,718.6,2085.4,718.5,2083.8,718.6 M2017.3,743.5c3.2,6.4,6.4,12.7,9.6,19.1c0.5-0.2,1.1-0.4,1.6-0.6
			c-2.9-6.5-5.9-13-9-19.5C2018.8,742.8,2018,743.2,2017.3,743.5 M2162,745.9c-2.5,5.4-5,10.8-7.5,16.2c0.5,0.2,1.1,0.4,1.6,0.6
			c3.2-6.4,6.4-12.8,9.6-19.1c-0.7-0.3-1.4-0.6-2.2-1C2163,743.7,2162.6,744.8,2162,745.9 M2013.2,745.6c3.2,6.2,6.6,12.4,9.8,18.7
			c0.6-0.2,1.2-0.5,1.8-0.8c-3.1-6.3-6.4-12.6-9.5-19C2014.6,744.8,2013.9,745.2,2013.2,745.6 M2167.8,744.6
			c-3.2,6.3-6.4,12.7-9.5,19c0.5,0.2,1,0.5,1.6,0.7c0.2,0.1,0.4,0,0.4-0.2c3.2-6.1,6.4-12.3,9.7-18.4
			C2169.3,745.3,2168.6,744.9,2167.8,744.6 M2009.5,747.6c0,0.5,0.4,0.9,0.6,1.4c3,5.6,6,11.3,9.1,16.9c0.6-0.2,1.1-0.5,1.7-0.7
			c-0.4-0.7-0.8-1.5-1.2-2.3c-2.8-5.4-5.7-10.8-8.5-16.2C2010.5,747,2009.9,747.2,2009.5,747.6 M2172,746.8
			c-3.2,6.1-6.4,12.3-9.7,18.4c0.6,0.2,1.1,0.7,1.7,0.7c0.6-1,1-2,1.6-2.9c2.7-5.1,5.5-10.2,8.2-15.3
			C2173.1,747.4,2172.6,747.1,2172,746.8 M2027.7,754.5c1,2.2,2,4.4,3,6.6c0.6-0.2,1.1-0.4,1.7-0.6c-0.6-1.6-1.3-3.2-2-4.8
			c-0.1-0.3-0.2-0.6-0.5-0.8C2029.2,754.8,2028.4,754.6,2027.7,754.5 M2153,755.1c-0.7,1.9-1.6,3.7-2.3,5.6c0.6,0.2,1.1,0.4,1.7,0.6
			c1-2.2,2.1-4.5,3.1-6.7C2154.7,754.7,2153.9,754.9,2153,755.1 M2032.8,755.6c0.6,1.4,1.1,2.8,1.7,4.2c0.6-0.2,1.2-0.4,1.7-0.6
			c-0.3-0.9-0.7-1.7-1-2.6c-0.1-0.2-0.1-0.5-0.4-0.6C2034.2,755.9,2033.5,755.7,2032.8,755.6 M2148.1,756.2c-0.5,1-0.9,2.1-1.3,3.1
			c0.6,0.2,1.2,0.4,1.7,0.6c0.6-1.4,1.2-2.8,1.7-4.2C2149.5,755.8,2148.8,756,2148.1,756.2 M2037.8,756.7c0.2,0.6,0.5,1.2,0.7,1.8
			c1.1-0.3,2.2-0.6,3.3-1C2040.4,757.2,2039.1,757,2037.8,756.7 M2141.2,757.7c1.2,0.3,2.3,0.7,3.4,0.9c0.3-0.6,0.5-1.2,0.7-1.8
			C2143.9,757.1,2142.6,757.3,2141.2,757.7z"/>
	</g>
	<g id="_x23_211d1aff">
		<path id="path3978" class="st0" d="M2089.4,552.6c0.5-0.1,1-0.2,1.5,0c0,0.8,0,1.7,0.1,2.5c0.1,0.9,0.1,1.8,0.2,2.7
			c0.1,0.7,0.1,1.5,0.1,2.2c-0.5,0.1-1,0.1-1.5,0.2c-1.2-1.6-2.2-3.4-3.4-5c-0.1,1.7,0.2,3.4,0.2,5.2c-0.5,0-1,0-1.5,0
			c0-1.7-0.2-3.4-0.2-5.1c-0.1-0.8-0.2-1.6-0.1-2.4c0.5,0,1.1,0,1.6-0.1c1.1,1.6,2,3.3,3.2,4.8
			C2089.7,555.9,2089.4,554.3,2089.4,552.6z"/>
		<path id="path3980" class="st0" d="M2095.8,552.6c0.5,0,1,0,1.5,0c0,2.5,0,5-0.2,7.6c-0.5,0-1,0-1.6,0c0-1.6,0-3.2,0.1-4.7
			C2095.8,554.5,2095.8,553.5,2095.8,552.6z"/>
		<path id="path3982" class="st0" d="M2098.6,560.3c0.1-2.5,0.4-5,0.5-7.5c0.6,0.1,1.2,0,1.7,0.2c0.5,1,0.9,2,1.4,3
			c0.4,0.8,0.7,1.6,1.2,2.3c0.1-1.7,0.3-3.4,0.4-5.1c0.5,0,0.9,0,1.4,0.1c0,2.5-0.4,5-0.5,7.5c-0.6,0-1.1,0-1.6-0.2
			c-0.8-1.8-1.7-3.5-2.5-5.3c-0.1,0-0.2,0-0.2,0c0,1.7-0.2,3.4-0.4,5.2C2099.5,560.4,2099,560.3,2098.6,560.3z"/>
	</g>
	<g id="_x23_221d1bff">
		<path id="path3985" class="st0" d="M2079,553.5c0.6-0.1,1.2-0.2,1.8-0.2c0.8,1.6,1.6,3.2,2.3,4.8c0.4,0.8,0.8,1.5,1.1,2.3
			c-0.6,0.1-1.1,0.2-1.7,0.2c-0.2-0.5-0.4-0.9-0.6-1.4c-0.9,0-1.8,0.2-2.8,0.2c-0.1,0.5-0.2,1.1-0.4,1.6c-0.6,0.1-1.1,0.2-1.7,0.2
			C2077.8,558.7,2078.4,556.1,2079,553.5 M2080.1,555.1c-0.2,1-0.4,2-0.6,3c0.6,0,1.3-0.1,1.9-0.2
			C2080.9,557,2080.5,556,2080.1,555.1z"/>
		<path id="path3987" class="st0" d="M2065.7,556.2c0.9-0.3,1.9-0.5,2.8-0.8c0.7-0.2,1.4-0.2,2.1-0.1c1.2,0.4,1.8,1.6,2.1,2.6
			c0.1,0.7,0.1,1.4,0.1,2.1c0.1,1.2-0.8,2.2-1.9,2.5c-1.1,0.3-2.3,0.6-3.4,0.9C2066.9,561.1,2066.4,558.7,2065.7,556.2
			 M2067.5,557.2c0.5,1.5,0.8,3.2,1.3,4.7c0.7-0.3,1.6-0.2,2.2-0.8c0.6-0.6,0.4-1.4,0.3-2.2c-0.2-0.8-0.5-1.8-1.3-2.1
			C2069.1,556.6,2068.3,556.9,2067.5,557.2z"/>
		<path id="path3989" class="st0" d="M2123.6,557.9c0.6,0,1.2,0.3,1.7,0.5c1.4,0.5,2.8,0.9,4.2,1.4c-0.1,0.4-0.2,0.8-0.4,1.2
			c-0.7-0.2-1.5-0.5-2.2-0.7c-0.6,2-1.3,3.9-1.9,5.8c-0.5-0.1-1-0.3-1.5-0.4c0.6-2,1.4-3.9,1.9-5.9c-0.7-0.2-1.4-0.5-2.1-0.7
			C2123.4,558.7,2123.5,558.3,2123.6,557.9z"/>
		<path id="path3991" class="st0" d="M2055,560c0.5-0.2,1-0.4,1.5-0.5c0.8,2.4,1.8,4.7,2.6,7c-0.5,0.2-1,0.4-1.4,0.6
			C2056.7,564.7,2055.8,562.4,2055,560z"/>
		<path id="path3993" class="st0" d="M2172.9,598.4c0.8-0.1,1.6-0.1,2.3,0.3c0.9,0.5,1.5,1.3,1.8,2.3c0.3,1,0.1,2.3-0.8,3
			c0,0-0.1,0-0.2,0c-0.3-0.3-0.5-0.8-0.8-1.2c0.2-0.4,0.6-0.8,0.5-1.3c-0.1-0.6-0.5-1.2-1-1.4c-0.5-0.3-1.2-0.2-1.7,0.1
			c-0.9,0.4-1.8,1.1-2.1,2c-0.2,0.8,0.3,1.6,1,2c0.4,0.2,0.9,0.1,1.3,0c0.2,0.5,0.7,0.9,0.7,1.4c-0.7,0.3-1.5,0.3-2.2,0.1
			c-1.1-0.4-1.9-1.4-2.2-2.5c-0.3-0.9,0-1.9,0.5-2.6C2170.6,599.4,2171.7,598.7,2172.9,598.4z"/>
		<path id="path3995" class="st0" d="M2001.5,614.4c0.4-0.1,0.8,0.2,1.1,0.3c-0.1,0.4-0.3,0.9-0.4,1.3c1.9,0.8,3.9,1.5,5.8,2.4
			c-0.2,0.4-0.3,0.8-0.5,1.2c-1.1-0.2-2.1-0.8-3.1-1.2c-1-0.3-1.9-0.8-2.8-1.1c-0.3,0.9-0.7,1.8-1,2.8c0,0.6-0.2,1.2-0.4,1.7
			c0.3,0.1,0.5,0.1,0.8,0.2c-0.1-0.8,0.2-1.7,0.9-2.3c0.8-0.7,2.1-0.6,2.9,0.1c0.7,0.5,1,1.3,1.3,2c-0.4,0.3-0.8,0.6-1.3,0.7
			c-0.3-0.7-0.7-1.6-1.6-1.9c-0.7-0.1-0.9,0.7-1,1.1c-0.2,0.3,0.1,0.7,0.5,0.7c1.2,0.4,2.4,0.8,3.6,1.2c-0.1,0.4-0.2,0.9-0.4,1.3
			c-0.5,0.1-1-0.3-1.4-0.4c-0.1,0.9-0.4,1.8-1,2.4c-0.6,0.7-1.7,0.8-2.5,0.4c-0.6-0.3-1-1-1-1.7c0-0.7,0.3-1.4,0.5-2
			c0.3,0,0.6,0,0.8-0.1c-0.4-0.2-0.8-0.4-1.2-0.5c-0.4,1.3-0.8,2.6-1.2,3.9c0,0.6-0.1,1.1-0.2,1.7c2,0.5,4.1,1,6.1,1.5
			c0,0.5-0.2,0.9-0.4,1.4c-2-0.6-4.1-1-6.2-1.5c0,0.6,0.1,1.2-0.1,1.8c1.3,0.3,2.6,0.6,3.9,1c0.2,0,0.2,0.3,0.2,0.5
			c-0.5,0.7-1.4,1.1-2.1,1.5c-0.2,0.2-0.5,0.2-0.8,0.2c0-0.5,0-0.9,0-1.4c-0.5-0.1-1-0.2-1.5-0.4c-0.2,0.5-0.3,1.1-0.4,1.6
			c-0.1,0.3,0.2,0.5,0.1,0.8c0,0.4-0.1,0.7-0.2,1.1c2.1,0.3,4.2,0.8,6.2,1.2c-0.1,0.5-0.2,0.9-0.2,1.4c-2.1-0.3-4.2-0.8-6.3-1.1
			c0,0.4-0.3,0.7-0.1,1.1c0.2,0.5,0,1,0,1.5c2.1,0.3,4.1,0.6,6.2,0.8c0,0.5-0.1,1-0.2,1.5c-2.1-0.3-4.2-0.7-6.3-0.8
			c0,0.8,0.1,1.5,0,2.3c1.3,0.1,2.7,0.2,4,0.3c0.8,0,1.6,0.1,2.3,0.2c0,0.5,0,0.9-0.1,1.4c-0.4,0-0.9,0-1.3,0
			c0.5,1.2,1.1,2.5,0.8,3.9c-0.2,0.8-0.9,1.7-1.8,1.6c-0.4,0-0.7-0.3-0.9-0.5c-0.4,0.6-1,1.3-1.8,1.3c-0.5,0-0.9-0.4-0.9-0.9
			c-0.1-0.8,0.1-1.6,0.1-2.4c-0.2,0-0.4,0-0.6,0c0,1,0,2.1-0.1,3.1c0.1,0.7,0.3,1.3,0.3,2c2.1,0,4.2-0.2,6.3-0.1c0,0.5,0,0.9,0,1.4
			c-2.1,0-4.3,0.2-6.4,0.1c0.2,0.6,0.3,1.3,0.2,2c2.1,0,4.3-0.1,6.4-0.1c0,0.5,0,0.9,0,1.4c-0.8,0-1.7,0-2.5,0c1,1,1.9,2.1,2.9,3.1
			c-0.3,0.4-0.5,0.8-0.8,1.2c-0.8-0.8-1.3-1.7-2.1-2.5c-0.1,0.7-0.3,1.6-1,2c-0.8,0.2-1.6,0.2-2.4,0.2c0,0.3,0,0.7,0,1
			c-0.4,0-0.8,0.1-1.2,0.2c-0.2-1.1-0.2-2.2-0.3-3.4c-0.1-0.2-0.2-0.4-0.3-0.7c-0.1-1.1,0.1-2.2-0.2-3.3c-0.3-1.3,0.1-2.6-0.3-3.9
			c-0.1-2.2,0.3-4.3,0-6.5c0.1-1,0.2-1.9,0.3-2.9c-0.3-0.7,0-1.4,0-2.1c0-0.3-0.1-0.7-0.1-1c0.1,0,0.2-0.1,0.3-0.1
			c0-0.4,0.2-0.8,0.1-1.1c-0.2-0.5,0-1,0.1-1.5c-0.8,0.3-1.9,0.4-2.5-0.3c-0.8-0.9-1-2.4-0.6-3.5c0.4-1.1,1.3-2,2-2.9
			c0.8-0.9,1.7-1.5,2.5-2.3c0.3-0.6,0.3-1.2,0.4-1.8c0.2-0.9,0.6-1.8,0.8-2.8c0-0.7,0.4-1.4,0.5-2c0.1-0.3,0-0.6,0.1-0.9
			c0.5-1.5,1-3.1,1.6-4.6c0.1-0.4,0.2-0.7,0.4-1.1C2001.1,615.3,2001.2,614.8,2001.5,614.4 M2001.5,623.9c-0.3,0.7-0.5,1.5-0.2,2.1
			c0.2,0.4,0.8,0.4,1.1,0.1c0.5-0.4,0.6-1.2,0.5-1.9C2002.5,624.1,2002,624,2001.5,623.9 M1993.6,635.1c-0.2,0.8,0.3,1.8,1.2,1.7
			c0.4,0,0.8,0,1.1-0.3c0.2-0.6-0.1-1.3,0-1.9c0.2-0.9,0.4-1.8,0.7-2.7c0.1-0.5,0-1,0-1.4C1995.3,631.8,1993.9,633.2,1993.6,635.1
			 M1996.5,648c0.6,0,1.1,0,1.7,0c0,1.1-0.1,2.2,0,3.4c0.2-0.1,0.4-0.3,0.4-0.5c0.2-0.8,0.1-1.6,0.1-2.4c0.3-0.1,0.6-0.2,0.9-0.3
			c0,0.5,0,1,0,1.5c0.1,0.4,0.4,0.9,0.8,0.9c0.3-0.1,0.5-0.4,0.7-0.7c0.2-1.2-0.5-2.3-0.9-3.3c-1.2-0.2-2.5-0.2-3.7-0.4
			C1996.5,646.6,1996.5,647.3,1996.5,648 M1996.9,659.4c0,0.8,0.1,1.6,0.2,2.5c0.7-0.1,1.4-0.1,2.1-0.2c0.6-0.6,0.6-1.7-0.1-2.2
			C1998.4,659.3,1997.7,659.4,1996.9,659.4z"/>
		<path id="path3997" class="st0" d="M2185,635c1.1-0.3,2.2-0.3,3.2,0.3c2,1.1,2.4,4.1,0.8,5.7c-0.9,0.9-2.3,1.2-3.5,1.1
			c-1.3,0.1-2.6-0.8-3.1-2c-0.4-0.8-0.3-1.6-0.3-2.5C2182.4,636.3,2183.7,635.2,2185,635 M2185.6,636.5c-0.7,0.1-1.4,0.4-1.8,1
			c-0.4,0.5-0.3,1.2-0.2,1.7c0.3,0.8,1.2,1.3,2,1.3c0.9,0,1.8-0.2,2.5-0.7c0.9-0.7,0.8-2.2-0.1-2.9
			C2187.3,636.4,2186.4,636.4,2185.6,636.5z"/>
		<path id="path3999" class="st0" d="M2184.1,644.1c0.8-0.6,1.7-0.8,2.7-0.9c1.2,0,2.4,0.3,3.2,1.3c0.7,0.7,0.9,1.8,0.8,2.7
			c0,1.3-0.9,2.6-2.3,2.9c-0.1-0.5-0.1-1-0.2-1.5c0.6-0.3,1.1-0.8,1.1-1.5c0.2-1-0.7-2-1.7-2.1c-0.8-0.1-1.7-0.1-2.5,0.3
			c-0.7,0.3-1.2,1.1-1.1,1.9c-0.1,1,0.8,1.8,1.7,1.8c0-0.6,0-1.2,0-1.7c0.4,0,0.8,0,1.2,0c0.1,1.1,0.2,2.1,0.2,3.2
			c-1.3,0-2.7,0.3-4,0.2c0-0.3,0-0.7,0-1c0.3-0.1,0.6-0.2,0.9-0.2c-0.8-0.5-1.3-1.4-1.3-2.3C2182.8,645.9,2183.2,644.8,2184.1,644.1
			z"/>
		<path id="path4001" class="st0" d="M2186,653.9c1.6-0.7,3.1-1.7,4.7-2.3c0,0.5,0,1,0,1.5c0,0.4-0.5,0.5-0.7,0.6
			c-0.9,0.4-1.7,0.8-2.6,1.2c1.1,0.5,2.1,1.1,3.2,1.5c0,0.6,0,1.2,0,1.8c-1.6-0.8-3.1-1.8-4.6-2.6c-0.9-0.2-2,0.1-2.9-0.2
			c0-0.5,0-1,0-1.4C2184,653.9,2185,654,2186,653.9z"/>
		<path id="path4003" class="st0" d="M2182.4,661.9c1.4,0,2.8,0.3,4.3,0.4c1.1,0.2,2.2,0.2,3.3,0.4c-0.2,1.4-0.3,2.8-0.5,4.2
			c-0.2,0.9-1.1,1.7-2.1,1.5c-0.6,0-1.1-0.4-1.4-1c-0.4,0.4-0.9,0.9-1.5,0.8c-1.1,0.1-2.2-0.7-2.3-1.8
			C2181.9,665,2182.4,663.5,2182.4,661.9 M2183.5,663.6c-0.1,0.8-0.2,1.6-0.2,2.4c0,0.3,0.2,0.5,0.5,0.7c0.4,0.1,1.1,0.2,1.3-0.4
			c0.3-0.8,0.3-1.7,0.4-2.5C2184.9,663.6,2184.2,663.6,2183.5,663.6 M2186.8,663.9c0,0.7-0.2,1.5-0.2,2.2c0,0.3,0.2,0.6,0.6,0.7
			c0.4,0.2,0.9-0.1,1-0.6c0.2-0.7,0.2-1.5,0.3-2.2C2187.9,664,2187.3,663.9,2186.8,663.9z"/>
		<path id="path4005" class="st0" d="M2182.4,670c1-0.4,2.1-0.3,3.1,0c1.2,0.3,2.3,1.2,2.6,2.4c0.5,1.8-0.5,4.1-2.4,4.6
			c-1.6,0.2-3.4-0.1-4.5-1.3C2179.5,674,2180.3,670.9,2182.4,670 M2182.9,671.5c-1,0.3-1.6,1.6-1.2,2.5c0.3,0.8,1.1,1.1,1.8,1.4
			c0.8,0.2,1.7,0.3,2.4-0.1c0.5-0.3,0.8-1,0.9-1.6c0-0.8-0.5-1.5-1.2-1.8C2184.8,671.4,2183.8,671.1,2182.9,671.5z"/>
		<path id="path4007" class="st0" d="M2104.2,671.3c1-0.1,2,0.1,3,0.5c-0.1,0.3-0.2,0.6-0.4,0.9c-0.9-0.2-1.7-0.5-2.6-0.5
			C2104.2,671.9,2104.2,671.6,2104.2,671.3z"/>
		<path id="path4009" class="st0" d="M2173.5,691.6c1.7,1.7,3.3,3.5,5,5.2c0.2,0.2,0.6,0.5,0.4,0.8c-0.2,0.5-0.5,0.9-0.7,1.4
			c-2.6-0.3-5.3-0.7-7.9-1c0.2-0.5,0.4-1,0.7-1.5c0.5,0,1.1,0.1,1.6,0.2c0.4-0.8,0.8-1.7,1.2-2.5c-0.4-0.4-0.8-0.7-1.1-1.1
			C2172.9,692.5,2173.2,692.1,2173.5,691.6 M2174.8,695.3c-0.3,0.5-0.5,1.1-0.8,1.6c1,0.1,2,0.4,3,0.4c-0.7-0.7-1.3-1.4-2-2
			C2174.9,695.3,2174.9,695.3,2174.8,695.3z"/>
		<path id="path4011" class="st0" d="M2078.6,724.5c1.6-0.3,3.2-0.2,4.8-0.4c4.3-0.1,8.6-0.1,12.8-0.1c0.3,0,0.6,0,0.9,0.1
			c0.8,0.2,1.6,0.1,2.4,0.2c1,0.1,2,0,2.9,0.1c1,0.1,1.9,0.1,2.9,0.2c0.2,0.4,0.4,0.8,0.6,1.3c-0.5,0-1.1,0-1.6,0
			c0,1.1-0.2,2.1-0.2,3.2c-0.2,1-0.1,2-0.2,3c0,0.4,0,0.9-0.1,1.3c-0.5-0.3-1.1-0.6-1.5-1.1c0.1-0.6,0.1-1.3,0.1-1.9
			c-0.8,0-1.5-0.1-2.2-0.2c0,0.4-0.1,0.8-0.2,1.1c-0.3,0-0.6,0-0.7-0.3c-0.5-0.7-1.2-1.3-1.5-2c0.3-0.1,0.6-0.2,1-0.2
			c-0.1-1,0.2-2,0.1-3.1c-0.4-0.1-0.9,0-1.3-0.1c-0.5-0.1-1-0.1-1.6-0.1c0,2.5,0,4.9-0.1,7.4c-0.5-0.2-1-0.6-1.5-0.9
			c0-0.7,0-1.4,0-2.1c-0.7,0-1.5,0-2.2,0c0,0.4-0.1,0.7-0.2,1.1c-0.2,0-0.4,0-0.6-0.2c-0.5-0.5-0.9-1-1.4-1.5
			c-0.2-0.2-0.2-0.4-0.2-0.6c0.3-0.1,0.6-0.1,0.9-0.2c0-1,0-2.1,0-3.1c-1.2,0-2.3-0.1-3.5,0.1c0,1.2,0.1,2.4,0,3.6
			c0,0.5-0.4,0.8-0.7,1.1c0.7,0.8,1.5,1.5,2.2,2.3c-0.2,0.2-0.4,0.3-0.5,0.5c-1.2-1.1-2.3-2.3-3.5-3.5c-0.4-0.3-0.8-1-0.4-1.4
			c0.3-0.5,1-0.2,1.4-0.1c0-0.8,0-1.7,0-2.5c-1.2,0-2.4,0-3.6,0c0,1,0,1.9,0.1,2.9c0.1,1,0,1.9,0.1,2.9c0.1,0.6,0,1.1,0.1,1.7
			c-0.5-0.3-1-0.5-1.5-0.8c0-0.4,0-0.7,0-1.1c-1.6,0.6-3.8-0.6-3.8-2.4c-0.1-0.8-0.1-1.7-0.1-2.5c-0.3-0.1-0.7-0.1-1-0.1
			c-0.3-0.4-0.5-0.8-0.7-1.2C2076.5,724.7,2077.5,724.6,2078.6,724.5 M2092.4,725.4c0,1,0,2,0,3c0.7,0.2,1.5,0,2.3,0.1
			c0-1,0-2,0-3.1C2094,725.4,2093.2,725.4,2092.4,725.4 M2078.7,725.8c0,1.3,0.1,2.7,0.2,4c0.2,0.1,0.5,0.2,0.7,0.1
			c0.5-0.2,0.9-0.5,1.3-0.9c0.1-1.1-0.2-2.2-0.1-3.2C2080.1,725.8,2079.4,725.8,2078.7,725.8 M2100.4,728.9c0.8,0,1.5,0,2.3,0
			c0-1.1,0.2-2.1,0.2-3.2c-0.8,0-1.5,0-2.3-0.1C2100.4,726.8,2100.4,727.9,2100.4,728.9z"/>
		<path id="path4013" class="st0" d="M2060.3,727c3.1-0.7,6.3-1.1,9.5-1.6c0.4,0.3,0.7,0.8,1,1.2c-0.5,0.1-1.1,0.2-1.6,0.2
			c0,1.3,0.3,2.5,0.5,3.8c0.1,1.2,0.3,2.4,0.5,3.6c-0.5-0.2-1.1-0.4-1.6-0.7c-0.2-0.6-0.2-1.3-0.3-1.9c-0.8,0-1.5,0.2-2.3,0.2
			c0,0.4,0,0.8-0.1,1.2c-0.3,0-0.6,0-0.8-0.3c-0.6-0.5-1.3-0.9-1.8-1.5c0.1-0.4,0.6-0.3,0.8-0.4c-0.1-1.1-0.3-2.1-0.5-3.1
			c-0.8,0.2-1.6,0.4-2.4,0.5c0.2,1.7,0.6,3.4,0.8,5.1c0.1,0.7,0.3,1.4,0.3,2.2c-0.5-0.2-1-0.4-1.6-0.7c-0.1-0.9-0.3-1.8-0.5-2.7
			c-0.6,0.1-1.2,0.2-1.8,0.3c0,0.4,0.1,0.8,0,1.3c-0.3,0-0.6,0.1-0.8-0.1c-0.5-0.4-1.1-0.8-1.6-1.3c0-0.2,0-0.4,0-0.6
			c1.3-0.5,2.6-0.6,4-0.9c-0.1-0.8-0.3-1.5-0.4-2.3c-1.1,0-2.1,0.4-3.1,0.5c-0.8,0.2-1.7,0.2-2.5,0.4c0.5,2.4,1.1,4.8,1.5,7.3
			c-0.5-0.2-1.1-0.4-1.6-0.6c-0.5-2.1-0.9-4.2-1.3-6.3c-0.7,0.1-1.3,0.3-2,0.4c0.4,2.4,1.1,4.8,1.6,7.3c-0.6-0.2-1.1-0.4-1.6-0.6
			c-0.3-1.3-0.6-2.5-0.8-3.8c-0.8,0.1-1.6,0.4-2.5,0.6c0.8,0.4,1.8,0.9,2.1,1.9c0.2,0.9-0.6,1.7-1.4,2.1c0.6,0.7,1.3,1.3,1.9,1.9
			c-0.2,0.1-0.5,0.2-0.7,0.3c-0.7-0.5-1.2-1.1-1.9-1.7c-0.6,0-1.3-0.1-1.7-0.6c-0.2-0.2-0.1-0.5-0.1-0.8c0.1-0.3,0.2-0.8,0.7-0.8
			c0.5-0.1,0.7,0.7,1.3,0.5c0.3-0.2,0.6-0.4,0.5-0.8c0-0.5-0.4-0.9-0.8-1.1c-0.7-0.5-1.7-0.6-2.5-1c0.1-0.3,0.2-0.6,0.6-0.7
			c1.4-0.4,2.8-0.7,4.2-1.1c-0.1-0.4-0.2-0.8-0.3-1.2c-1.8,0.4-3.5,0.8-5.2,1.3c-0.4-0.3-0.8-0.7-1.1-1.2c2.4-0.5,4.7-1.2,7.1-1.7
			c1.9-0.6,3.8-0.9,5.7-1.2C2057.3,727.6,2058.8,727.2,2060.3,727 M2065.3,727.5c0.1,1.1,0.3,2.1,0.5,3.2c0.8-0.1,1.5-0.3,2.3-0.4
			c-0.1-1.1-0.2-2.1-0.5-3.2C2066.8,727.2,2066,727.4,2065.3,727.5z"/>
	</g>
	<g id="_x23_211c1aff">
		<path id="path4016" class="st0" d="M2073.5,554.3c0.5,0,1-0.1,1.5-0.2c0.3,1.5,0.5,3,0.8,4.5c0.1,1,0.4,2,0.4,3
			c-0.5,0-1,0.1-1.5,0.1C2074.4,559.2,2073.8,556.8,2073.5,554.3z"/>
		<path id="path4018" class="st0" d="M2119.7,561.5c0.5-1.6,0.8-3.1,1.3-4.7c0.5,0.2,0.9,0.3,1.4,0.4c0,0.6-0.3,1.2-0.4,1.8
			c-0.5,1.8-1,3.6-1.5,5.5c-0.5,0-1-0.2-1.5-0.3C2119.1,563.2,2119.5,562.4,2119.7,561.5z"/>
		<path id="path4020" class="st0" d="M2060,681.3c1.3,0,2.6,0,3.9,0c0,0.4,0.1,0.8,0.1,1.2c-1.4,0-2.7,0-4.1,0
			C2060,682.1,2060,681.7,2060,681.3z"/>
	</g>
	<g id="_x23_231e1cff">
		<path id="path4023" class="st0" d="M2107.2,557.4c-1-1.2-0.1-3.3,1.4-3.5c0.7,0,1.5-0.1,2.2,0.2c0.7,0.2,1.4,0.8,1.6,1.5
			c0.1,0.4,0.2,0.8,0.2,1.2c-0.5,0-1-0.1-1.5-0.2c-0.1-0.4-0.2-0.9-0.6-1.2c-0.5-0.3-1.2-0.5-1.8-0.2c-0.4,0.2-0.6,0.9-0.2,1.2
			c1,0.7,2.4,0.9,3.3,1.8c0.5,0.4,0.4,1.1,0.3,1.7c-0.1,0.8-0.8,1.5-1.6,1.7c-1.3,0.2-2.8,0-3.8-0.9c-0.6-0.5-0.7-1.4-0.6-2.1
			c0.5,0,1,0.2,1.5,0.2c0,0.5,0.2,1,0.7,1.3c0.6,0.3,1.3,0.5,1.9,0.2c0.5-0.2,0.7-1,0.2-1.3C2109.5,558.5,2108.1,558.3,2107.2,557.4
			z"/>
		<path id="path4025" class="st0" d="M2041.1,565.7c2.1-1.1,4.3-2.2,6.4-3.3c0.2,0.4,0.4,0.7,0.6,1.1c-0.4,0.2-0.8,0.5-1.2,0.7
			c0.2,0.5,0.5,1.1,0.8,1.6c-0.8,0.5-1.8,0.9-2.6,1.4c-0.2,0.1-0.3,0.4-0.4,0.7c0.3,0.3,0.7,0.5,1.2,0.3c0.6-0.6,1.1-1.4,2-1.6
			c0.6-0.1,1.2,0.3,1.5,0.8c0.3,0.5,0.5,1.1,0.3,1.6c-0.2,0.6-0.7,1.1-1.2,1.5c0.7,0,1.4,0,2.1,0c-0.1,0.4-0.3,0.8-0.5,1.2
			c-0.9,0.1-1.8-0.3-2.7-0.3c-0.6-0.1-1.1,0.4-1.6,0.4c-0.4,0-1-0.1-1.1-0.6c0-0.4,0.2-0.8,0.5-1c0.7-0.1,1.4,0.1,2.2,0
			c0.7-0.5,1.3-1.4,0.9-2.3c-1-0.2-1.3,1.2-2.2,1.2c-0.9,0.1-1.9,0-2.7-0.5c-0.5-0.5-0.3-1.4,0.1-1.9c0.7-0.5,1.6-0.9,2.4-1.3
			c-0.1-0.2-0.1-0.4-0.3-0.5c-1.2,0.6-2.3,1.2-3.5,1.8c-0.5,0.3-1,0.8-1.5,1.1c1,1.8,2.2,3.6,3.3,5.4c-0.4,0.3-0.8,0.5-1.2,0.7
			c-0.2-0.4-0.5-0.7-0.7-1.1c-0.7,0.8-1.7,1.7-2.9,1.5c-1.4-0.1-2.3-1.8-1.8-3.1c0.4-0.8,1.2-1.4,2-1.8c0.3,0.3,0.6,0.5,0.9,0.8
			c-0.5,0.2-1,0.5-1.4,0.9c0.7,0.1,1.4,0,2.2,0c-0.5-0.8-1-1.7-1.5-2.5c-1.2,0.8-2.4,1.6-3.7,2.3c-0.4,0.4-0.7,0.8-1.2,1.1
			c-0.2,0.1,0,0.4,0.1,0.6c1,1.5,2.1,2.9,3.1,4.4c0.2,0.2,0.1,0.4,0,0.7c0.7-0.1,1.4,0.2,1.8,0.8c0.5,0.5,0.5,1.4,0,2
			c-1.3,1.7-3.5,2.4-5.5,2.4c-0.1-0.5-0.1-0.9-0.1-1.4c0.7,0.1,1.5,0.1,2.2,0c0.7-0.2,1.4-0.7,1.9-1.3c0.2-0.2,0.1-0.5,0.2-0.8
			c-0.3-0.1-0.5-0.4-0.9-0.3c-0.4,0.2-0.7,0.6-1,0.9c-0.4,0-0.8-0.1-1.1-0.2c0.3-0.7,0.8-1.3,1.4-1.8c-0.6-0.8-1.1-1.6-1.7-2.4
			c-0.6,0.5-1.2,0.9-1.8,1.4c0.3,0.4,0.9,0.8,0.8,1.4c-0.9,0.4-1.8-0.1-2.7-0.2c-0.4-0.1-1-0.2-0.8-0.7c0.2-0.3,0.5-0.5,0.8-0.7
			c-0.4-0.5-0.7-0.9-1-1.4c-0.5,0.4-1.1,0.8-1.6,1.2c-0.3-0.3-0.5-0.7-0.8-1c1.3-1.1,2.8-2,4-3.2c0.8-0.6,1.7-1.1,2.5-1.8
			c0.8-1,2.1-1.5,3.1-2.3C2038.6,567.3,2040,566.7,2041.1,565.7 M2038.5,572.1c0.3,0.4,0.6,0.9,1.1,0.9c0.7,0.1,1.2-0.5,1.7-0.9
			C2040.4,572,2039.4,572.1,2038.5,572.1 M2031.3,574.5c0.4,0.4,0.7,0.9,1.1,1.4c0.7-0.5,1.3-0.9,1.9-1.4c-0.3-0.4-0.6-0.9-1-1.3
			c0,0-0.1,0-0.2,0C2032.5,573.6,2031.9,574.1,2031.3,574.5z"/>
		<path id="path4027" class="st0" d="M2137.3,564.9c0.2-0.4,0.4-0.8,0.7-1.2c1.7,1.1,3.5,2.1,5.2,3.1c-0.2,0.4-0.4,0.8-0.7,1.2
			c-0.6-0.4-1.3-0.8-1.9-1.1c-1,1.8-2.1,3.5-3.1,5.3c-0.5-0.3-0.9-0.5-1.3-0.8c0.5-1,1.1-1.9,1.7-2.9c0.5-0.8,0.9-1.7,1.5-2.4
			C2138.6,565.7,2137.9,565.4,2137.3,564.9z"/>
		<path id="path4029" class="st0" d="M2022,581.1c0.9-0.7,1.6-1.6,2.5-2.3c0.3,0.3,0.6,0.6,0.9,0.9c-0.3,0.4-0.7,0.7-1,1
			c1.5,1.5,2.9,3.1,4.4,4.6c-0.3,0.3-0.7,0.7-1.1,1c-0.8-0.9-1.6-1.7-2.4-2.6c-0.5,0.6-1,1.1-1.5,1.7c0.3,0.4,1.1,0.8,0.8,1.4
			c-0.7,0.4-1.6,0.4-2.4,0.3c-0.4-0.1-0.6-0.5-0.9-0.8c0.3-0.4,0.6-0.8,0.9-1.1c0.8-0.8,1.5-1.6,2.3-2.3c-0.3-0.4-0.7-0.7-1-1.1
			c-1,1-2,2-3,3.1c-0.6,0.6-1,1.3-1.6,1.9c1.5,1.4,3.1,2.7,4.6,4.1c0,0.5-0.6,0.8-0.8,1.1c-1.6-1.4-3.2-2.8-4.7-4.2
			c-0.6,0.5-1,1.2-1.5,1.8c1.6,1.4,3.3,2.6,4.9,4c-0.3,0.3-0.6,0.7-0.9,1.1c-0.6-0.4-1.1-0.9-1.7-1.3c0.1,1.2-0.5,2.3-1.1,3.2
			c-0.8,0.9-2,1.2-3.2,1.2c-0.3,0.4-0.7,0.8-1.2,0.9c0.1,0.5,0,0.9,0,1.4c1,0,2.1-0.3,3.1-0.4c-0.1,0.5-0.2,1.1-0.2,1.6
			c-1.9,0-3.9,0.2-5.8,0.2c0-0.5-0.1-0.9-0.2-1.4c0.6-0.1,1.2-0.2,1.8-0.2c0.1-0.1,0.2-0.3,0.2-0.4c-0.5-0.6-1.1-0.9-1.8-1.3
			c-0.6,0.9-1.2,1.7-1.7,2.6c-0.1,0.6-0.4,1.1-0.6,1.6c1.8,1,3.6,2.1,5.4,3.1c-0.2,0.4-0.4,0.8-0.7,1.2c-1-0.4-1.9-1.1-2.8-1.5
			c-0.3,0.6-0.5,1.4-1.3,1.6c0.1,0.5,0.1,1,0.1,1.5c1-0.2,2-0.4,3-0.7c0,0.5,0,1-0.1,1.5c-1.9,0.4-3.8,0.7-5.7,1
			c-0.1-0.4-0.3-0.9-0.3-1.4c0.7-0.1,1.3-0.3,1.9-0.5c-0.3-0.8-1.3-0.9-1.9-1.4c-0.5,1.1-1.1,2.2-1.7,3.3c-0.4-0.1-0.8-0.3-1.2-0.5
			c0.8-1.6,1.7-3.2,2.5-4.8c0.4-1.3,1.2-2.4,1.9-3.6c0.2-0.3,0.1-0.7,0.3-1c1.1-1.7,2.2-3.3,3.3-5c0.3-0.5,0.2-1.1,0.5-1.6
			c0.4-0.6,0.9-1.1,1.6-1.3c1.3-0.4,2.9,0.6,3.1,2c0,0.7-0.4,1.3-0.8,1.8c0.5,0.2,1.1,0,1.4-0.5c0.6-0.9,1.1-2,0.9-3.2
			c-0.6-0.6-1.3-1.1-2-1.7c0,0-0.1,0-0.2,0c-0.3,0.4-0.6,0.9-0.9,1.3c-0.3-0.2-0.7-0.4-0.9-0.7c0-0.3,0.2-0.6,0.3-0.8
			c0.8-1,1.6-1.9,2.3-3c0.8-1,1.8-1.9,2.5-3c0.8-0.8,1.6-1.7,2.4-2.6C2021.5,581.9,2021.7,581.4,2022,581.1 M2012.7,593.9
			c-0.4,0.2-0.5,0.9-0.2,1.2c0.4,0.3,0.8,0,1.2-0.1c0.2,0.1,0.3,0.3,0.5,0.4c-0.4,0.9-1.5,1.4-2.4,1c-0.2,0.3-0.4,0.6-0.5,0.9
			c0.5,0.5,1.1,0.8,1.6,1.2c0.4-0.7,0.6-1.3,1-2c0.2-0.1,0.4-0.1,0.6-0.2c0.2-0.5,0.5-1,0.2-1.5
			C2014.6,593.8,2013.5,593.5,2012.7,593.9 M2007.4,604.1c-0.3,0.6-0.6,1.1-0.9,1.7c0.6,0.3,1.2,0.6,1.8,0.9
			c0.3-0.6,0.5-1.3,0.7-1.9c-0.5-0.3-0.9-0.6-1.4-0.8C2007.6,604,2007.5,604.1,2007.4,604.1z"/>
		<path id="path4031" class="st0" d="M2164.5,586.2c0.3-0.3,0.6-0.6,1-0.9c1.4,1.5,2.7,3.1,4,4.7c-0.3,0.3-0.7,0.6-1,0.8
			c-0.5-0.6-1-1.1-1.4-1.7c-1.6,1.3-3.1,2.7-4.7,4c-0.3-0.4-0.7-0.8-1-1.2c1.6-1.4,3.2-2.7,4.7-4
			C2165.4,587.3,2165,586.7,2164.5,586.2z"/>
		<path id="path4033" class="st0" d="M2175.6,614.5c2.3-0.9,4.6-1.8,6.9-2.7c0.2,0.5,0.4,1,0.6,1.5c-1.2,1.6-2.5,3.1-3.7,4.7
			c1.6-0.5,3.2-1.3,4.8-1.8c0.2,0.5,0.3,0.9,0.4,1.4c-2.3,0.9-4.6,1.9-7,2.7c-0.2-0.5-0.5-0.9-0.5-1.5c1.2-1.6,2.5-3.1,3.7-4.7
			c-1.7,0.5-3.3,1.2-4.9,1.9C2175.9,615.5,2175.5,615,2175.6,614.5z"/>
		<path id="path4035" class="st0" d="M1997.1,669c0.4-0.1,0.8-0.1,1.2-0.1c0,0.4,0.1,0.9,0.2,1.3c2.1-0.3,4.2-0.8,6.3-1.1
			c0.1,0.5,0.2,0.9,0.2,1.4c-0.5,0.1-1.1,0.2-1.6,0.3c0.8,0.9,1.2,2.2,1,3.4c-0.3,1.1-1.3,1.9-2.3,2.4c-0.2-0.6-0.2-1.5-0.9-1.8
			c-0.7-0.4-1.7,0.3-1.4,1.1c0.1,1,0.6,2,0.9,2.9c2-0.6,4.1-1.2,6.1-1.8c0.1,0.4,0.3,0.9,0.4,1.4c-2,0.6-4.1,1.2-6.1,1.8
			c0.2,0.7,0.6,1.2,0.8,1.9c2-0.6,4-1.2,6-1.8c0.2,0.4,0.3,0.9,0.4,1.4c-1.2,0.3-2.3,0.7-3.5,1c0.2,0.7,0.4,1.5,0.7,2.2
			c0.1,0.4,0.3,0.7,0.7,0.9c0.5,0,1-0.3,1.3-0.7c0.4-0.6,0.6-1.4,0.9-2c0.3,0.2,0.5,0.3,0.8,0.5c-0.3,1.1-0.8,2.1-1.5,3
			c-0.3,0.4-0.8,0.8-1.4,0.8c-0.7,0.1-1.4-0.4-1.7-1.1c-0.4-1-0.6-2.1-1.1-3.1c-0.4,0-0.7,0.1-1.1,0.2c0.5,1.6,1.1,3.2,1.6,4.7
			c0.2,0.6,0.6,1.1,0.9,1.6c1-0.2,1.8-0.9,2.8-0.8c0.7,0.1,0.9,0.8,1.1,1.4c0.5-1,1-2,1.5-2.9c0,0,0.1-0.1,0.2-0.1
			c0.3,0.3,0.6,0.6,0.9,0.9c0,0.4-0.3,0.7-0.5,1c-0.9,1.6-1.8,3.2-2.7,4.8c-0.4-0.4-0.8-0.7-1.1-1.1c0.3-0.5,0.7-1.1,0.6-1.7
			c-0.1-0.3-0.3-0.5-0.4-0.7c-0.6,0-1.2,0.3-1.8,0.5c0.4,1,0.9,2,1.3,3.1c0.3,0.7,0.8,1.2,1,1.9c1.9-0.8,3.9-1.7,5.8-2.5
			c0.2,0.4,0.4,0.8,0.6,1.3c-1.9,0.9-3.9,1.7-5.8,2.5c0.3,0.8,0.8,1.4,1.2,2.2c1.9-0.9,3.7-2,5.7-2.9c0.2,0.4,0.4,0.8,0.6,1.3
			c-0.9,0.5-1.7,0.9-2.6,1.3c0.3,0.6,0.6,1.1,0.9,1.6c0.5-0.2,0.9-0.5,1.5-0.6c0.3,0.7,0.2,1.5,0.1,2.3c-0.1,0.5-0.3,1.1-0.9,1.1
			c-0.6,0.1-0.7-0.6-1.1-0.9c-0.6,0.2-1.1,0.6-1.6,0.9c0,0.2,0,0.4,0.1,0.6c0.3-0.1,0.6-0.2,0.9-0.2c0.3,0.3,0.4,0.7,0.6,1.1
			c-0.5,0.4-1.4,0.7-1.9,0.1c-0.6-0.6-1.1-1.5-0.9-2.4c0.5-0.7,1.4-0.9,2.1-1.4c-0.3-0.5-0.6-1.1-0.9-1.7c-0.6,0.3-1.2,0.6-1.8,1
			c0.2,0.4,0.4,0.8,0.6,1.2c-0.4,0.2-0.7,0.4-1.1,0.5c-0.6-1-1.1-2.1-1.6-3.1c-0.7-1.1-1.1-2.4-1.7-3.5c-0.2-0.4-0.5-0.6-0.6-1
			c-0.7-1.5-1.3-3-1.9-4.5c-0.2-0.6-0.6-1.1-0.8-1.7c-0.4-1-0.7-2.1-1.1-3.1c-0.1-0.3-0.4-0.5-0.6-0.8c-0.5-1.2-0.6-2.5-1.2-3.6
			c-0.2-0.4-0.3-0.8-0.4-1.2c-0.8,0.6-1.6,1.4-1.8,2.3c-0.1,0.5-0.1,1,0.2,1.4c0.2,0.3,0.6,0.7,1,0.5c0.5-0.2,0.9-0.7,1.2-1.2
			c0.1,0.5,0.3,1,0.3,1.5c-0.3,1-1.4,1.6-2.4,1.2c-1-0.4-1.6-1.6-1.6-2.7c-0.1-0.9,0.4-1.8,0.9-2.5c0.5-0.7,1.1-1.3,1.8-1.9
			c-0.6-1.2-0.7-2.5-1-3.8C1997.8,672.9,1997.2,671,1997.1,669 M1998.8,671.6c0.2,0.7,0.4,1.3,0.5,2c0.4-0.3,0.8-0.8,1.4-0.7
			c0.9-0.1,1.6,0.6,2.1,1.1c0.5-0.7,0.5-1.7,0-2.4c-0.3-0.4-0.8-0.8-1.3-0.6C2000.6,671.3,1999.6,671.4,1998.8,671.6z"/>
		<path id="path4037" class="st0" d="M2079,679.5c0.9-0.1,1.8-0.1,2.8,0c-0.1,0.4-0.2,0.8-0.2,1.2c-0.8,0-1.6-0.1-2.3,0
			C2079.1,680.3,2079.1,679.9,2079,679.5z"/>
		<path id="path4039" class="st0" d="M2176.4,685.6c1.1,0.3,2,0.9,3.1,1.3c1.3,0.6,2.6,1.1,3.8,1.8c-0.6,1.2-1,2.4-1.6,3.5
			c-0.4,0.7-1.1,1.4-1.9,1.3c-0.9-0.1-1.6-0.7-1.8-1.5c-0.9,0.8-2.4,0.3-3-0.7c-0.4-0.7-0.4-1.5-0.1-2.2
			C2175.3,687.9,2175.9,686.7,2176.4,685.6 M2177,687.4c-0.3,0.7-0.7,1.4-0.9,2.2c-0.2,0.9,1.1,1.6,1.6,0.8c0.5-0.7,0.8-1.5,1.1-2.2
			C2178.2,688,2177.6,687.7,2177,687.4 M2179.9,688.9c-0.3,0.7-0.7,1.4-0.9,2.1c-0.1,0.7,0.9,1.3,1.3,0.7c0.5-0.7,0.8-1.4,1-2.2
			C2180.9,689.2,2180.4,689,2179.9,688.9z"/>
		<path id="path4041" class="st0" d="M2101.7,733.5c0.8-0.3,1.8-0.1,2.5,0.4c1,0.7,1.8,1.7,2.5,2.7c0.2,0.2,0,0.6-0.3,0.6
			c-0.8-0.8-1.5-1.7-2.5-2.1c-0.5-0.2-1-0.1-1.4-0.2C2102.1,734.4,2102,733.9,2101.7,733.5z"/>
	</g>
	<g id="_x23_221d1aff">
		<path id="path4045" class="st0" d="M2113.8,556.3c0-0.5,0.2-0.9,0.3-1.3c2,0.5,4,0.9,5.9,1.4c-0.1,0.4-0.2,0.9-0.4,1.3
			c-0.7-0.2-1.5-0.4-2.2-0.5c-0.4,2-1,4-1.4,6c-0.5-0.1-1-0.2-1.5-0.4c0.5-2,0.9-4,1.4-6C2115.3,556.7,2114.6,556.5,2113.8,556.3z"
			/>
		<path id="path4047" class="st0" d="M2185.1,628.4c0.9-0.2,1.8-0.5,2.7-0.5c0.1,0.5,0.2,1,0.3,1.4c-1.9,0.5-3.9,1-5.9,1.4
			c0.1,1.2,0.6,2.4,0.7,3.7c-0.4,0.1-0.8,0.2-1.2,0.3c-0.5-1.7-0.8-3.4-1.3-5.2C2182,629.1,2183.6,628.8,2185.1,628.4z"/>
	</g>
	<g id="_x23_221e1bff">
		<path id="path4051" class="st0" d="M2062.4,557.3c0.5-0.2,0.9-0.3,1.4-0.5c0.9,2.4,1.6,4.8,2.4,7.2c-0.5,0.1-1,0.4-1.6,0.4
			c-1.5-1.3-3-2.7-4.5-4c0.5,1.7,1.2,3.3,1.6,5.1c-0.5,0.2-0.9,0.3-1.4,0.5c-0.7-2.4-1.7-4.8-2.3-7.2c0.5-0.1,1.1-0.4,1.6-0.4
			c1.5,1.3,2.9,2.6,4.4,3.9C2063.5,560.6,2062.9,559,2062.4,557.3z"/>
		<path id="path4053" class="st0" d="M2172.3,607.7c2.2-1.1,4.5-2.2,6.7-3.3c0.3,0.5,0.5,0.9,0.7,1.4c-0.9,0.4-1.7,0.8-2.5,1.3
			c0.4,0.9,0.8,1.7,1.3,2.6c0.8-0.4,1.7-0.8,2.5-1.3c0.3,0.5,0.5,1,0.7,1.5c-2.3,1.1-4.5,2.2-6.7,3.3c-0.3-0.5-0.5-0.9-0.7-1.4
			c1-0.5,2-1,3-1.5c-0.4-0.9-0.8-1.7-1.3-2.6c-1,0.5-2,1.1-3.1,1.5C2172.7,608.6,2172.5,608.2,2172.3,607.7z"/>
		<path id="path4055" class="st0" d="M2182.9,619.8c0.8-0.1,1.6,0,2.2,0.5c1.3,0.9,1.8,2.6,1.5,4c-0.2,0.7-0.6,1.4-1.3,1.9
			c-1.1,0.8-2.5,1.2-3.9,1c-2.3-0.6-3.4-3.6-2.2-5.5C2180.2,620.6,2181.6,620,2182.9,619.8 M2182.2,621.6c-0.7,0.2-1.3,0.6-1.7,1.2
			c-0.7,1.1,0.2,2.8,1.5,2.8c1,0.1,2-0.3,2.8-0.9c0.9-0.8,0.8-2.4-0.2-3C2183.9,621.2,2182.9,621.3,2182.2,621.6z"/>
		<path id="path4057" class="st0" d="M2108.1,673.1c0-0.4,0.1-0.7,0.2-1.1c0.7,0.1,1.3,0.2,2,0.4c-0.1,0.3-0.1,0.6-0.2,0.9
			C2109.4,673.3,2108.8,673.1,2108.1,673.1z"/>
		<path id="path4059" class="st0" d="M2071.6,678c0.9,0,1.7-0.3,2.6-0.4c0.1,0.3,0.2,0.7,0.3,1.1c-0.9,0.2-1.9,0.3-2.8,0.5
			C2071.7,678.8,2071.6,678.4,2071.6,678z"/>
		<path id="path4061" class="st0" d="M2110.7,680.2c1.1,0.1,2.2,0.3,3.2,0.5c0,0.4-0.1,0.8-0.2,1.2c-1.1-0.2-2.2-0.4-3.3-0.5
			C2110.5,681,2110.5,680.6,2110.7,680.2z"/>
		<path id="path4063" class="st0" d="M2117.3,721.7c0.6-0.4,1.4-0.1,1.9,0.4c1.2,1.2,1.8,2.8,2.4,4.4c0.1,0.2,0.2,0.5,0.5,0.5
			c1.5,0.1,2.9,0.5,4.4,0.7c1,0.2,2.1,0.3,3,0.7c1.6,0.3,3.2,0.7,4.8,1c1,0.3,2,0.3,3,0.8c0.7,0.3,1.6,0.3,2.2,0.7
			c0.2,0.4,0.3,0.9,0.4,1.3c-0.6-0.1-1.1-0.3-1.6-0.4c-0.6,2.4-1.2,4.8-1.8,7.2c-0.4-0.4-0.8-0.8-1.2-1.3c0-0.8,0.3-1.5,0.5-2.2
			c-0.8,0-1.6-0.3-2.4-0.4c-0.1,0.3-0.2,0.6-0.3,1c-0.2,0-0.3,0-0.5,0c-0.5-0.8-1.1-1.6-1.3-2.6c0.3-0.1,0.7,0.1,1-0.2
			c0.2-1,0.5-1.9,0.6-2.9c-0.8-0.1-1.6-0.4-2.5-0.5c-0.5,2.4-1,4.9-1.4,7.3c-0.4-0.4-0.8-0.8-1.2-1.2c0-0.5,0.1-1,0.2-1.5
			c-0.9,0.3-2.1,0.4-2.9-0.3c-1.1-0.9-1.5-2.4-1.5-3.8c0.7,0,1.4,0,2.1-0.2c0.5-0.4,0.1-1.1-0.3-1.4c-1-0.3-2.1-0.3-3.1-0.5
			c-0.4,2.4-0.8,4.9-1.2,7.3c-0.5-0.3-0.9-0.7-1.3-1.1c0.1-0.5,0.1-0.9,0.2-1.4c-0.9,0.2-1.8,0.4-2.6-0.1c-0.7-0.4-1.1-1.1-1.4-1.8
			c-0.1,0.4-0.2,0.8-0.2,1.3c-0.8,0.3-1.8,0.7-2.7,0.4c-1.2-0.3-2.3-1.5-2.1-2.8c0.1-0.6,0.7-1,1.2-1.2c-0.5-0.4-0.9-0.8-1.1-1.3
			c-0.2-1.3,1.3-2.4,2.5-1.9c0.8,0.3,1.6,1.2,1.1,2.1c-0.3,0.5-1,0.6-1.6,0.6c0,0.1,0.1,0.3,0.1,0.4c0.4,0,0.7,0,1.1,0.1
			c0.5,0.3,0.4,1,0.6,1.5c-0.7-0.1-1.5-0.3-2.2-0.1c-0.3,0.1-0.8,0.4-0.7,0.9c0.3,0.4,0.8,0.6,1.3,0.6c0.9,0,1.7-0.4,2.4-0.8
			c0-0.5-0.1-1-0.3-1.6c0.8-0.1,1.5-0.2,2.3-0.4c0.1-0.5,0-1.2-0.6-1.4c-0.6-0.1-1.2-0.2-1.8-0.2c-0.2-0.5-0.4-1-0.6-1.5
			c0.6,0,1.2,0.1,1.7,0.2c1.6,0.4,3.2,0.4,4.7,0.8c-0.5-1.1-1.1-2.3-2-3.2c-0.4-0.4-1-0.4-1.5-0.4
			C2117.6,722.7,2117.4,722.2,2117.3,721.7 M2112.7,726.5c-0.5,0.3-0.3,1.2,0.3,1.2c0.4,0.1,1-0.2,0.9-0.7
			C2113.9,726.5,2113.1,726.1,2112.7,726.5 M2117.9,727.5c0.6,0.6,1,1.4,0.9,2.2c0,0.3-0.3,0.5-0.6,0.6c-0.5,0.1-1,0-1.4,0.3
			c-0.4,0.4,0,1,0.4,1.1c1,0.2,2.1,0,3-0.5c0.2-1,0.4-2.1,0.5-3.2C2119.8,727.9,2118.8,727.7,2117.9,727.5 M2126.2,729
			c0.5,0.7,0.8,1.6,0.6,2.4c-0.5,0.4-1.2,0.3-1.8,0.4c-0.2,0.1-0.3,0.3-0.5,0.5c0.2,0.4,0.4,0.7,0.8,0.8c0.8,0.1,1.6,0.1,2.3-0.2
			c0.3-0.1,0.7-0.2,0.7-0.6c0.2-0.9,0.3-1.8,0.5-2.7C2128,729.4,2127.1,729,2126.2,729 M2134.3,730.7c-0.2,1-0.5,2-0.6,3.1
			c0.7,0.2,1.5,0.4,2.2,0.5c0,0.3-0.1,0.6-0.1,0.9c0.3-1.3,0.6-2.5,0.9-3.8C2135.9,731.2,2135.2,730.7,2134.3,730.7z"/>
	</g>
	<g id="_x23_231f1eff">
		<path id="path4066" class="st0" d="M2043.1,561.3c0.1-1,1.1-1.5,2.1-1.5c0.1,0.2,0.3,0.5,0.4,0.7c-0.5,0.1-0.9,0.3-1.3,0.6
			c0,0.3-0.1,0.7,0.1,1c0.3,0.5,1,0.6,1.5,0.8c-0.4,0.2-0.8,0.5-1.2,0.4C2043.8,563.1,2043.1,562.2,2043.1,561.3z"/>
		<path id="path4068" class="st0" d="M2096.6,675c1.5-0.8,3.1-1.2,4.8-1.1c0,0.4,0,0.7,0,1.1c-1.4-0.1-2.8,0.3-4,0.9
			C2097,675.8,2096.8,675.3,2096.6,675z"/>
		<path id="path4070" class="st0" d="M2084.6,677.3c0.9,0.2,1.8,0.5,2.6,1c-0.3,0.3-0.5,0.6-0.8,0.9c-0.7-0.4-1.5-0.7-2.2-1
			C2084.3,677.9,2084.4,677.6,2084.6,677.3z"/>
	</g>
	<g id="_x23_231e1bff">
		<path id="path4073" class="st0" d="M2130.9,560.5c0.5,0.2,0.9,0.4,1.4,0.6c-0.6,1.7-1.6,3.3-2.1,5c-0.3,1.3,1.9,2.3,2.6,1
			c0.8-1.6,1.4-3.2,2.2-4.8c0.5,0.2,0.9,0.4,1.4,0.7c-0.6,1.4-1.3,2.8-1.9,4.2c-0.3,0.7-0.8,1.5-1.5,1.8c-0.9,0.4-1.9,0.1-2.8-0.3
			c-0.9-0.4-1.7-1.4-1.7-2.4c0.1-1.1,0.8-2.1,1.2-3.1C2130.1,562.3,2130.5,561.4,2130.9,560.5z"/>
		<path id="path4075" class="st0" d="M2144.2,567.6c1.6,1,3.2,1.9,4.7,3c-0.2,0.3-0.5,0.7-0.7,1.1c-1.2-0.7-2.2-1.5-3.4-2.1
			c-0.3,0.4-0.5,0.8-0.8,1.3c1,0.7,2.1,1.3,3.1,2c-0.2,0.4-0.4,0.7-0.7,1.1c-0.2,0-0.4-0.2-0.6-0.3c-0.7-0.5-1.5-1-2.2-1.4
			c-0.1-0.1-0.3-0.2-0.4-0.1c-0.4,0.5-0.6,1-1,1.5c1.2,0.7,2.3,1.5,3.5,2.2c-0.2,0.4-0.5,0.8-0.7,1.1c-1-0.5-1.9-1.2-2.9-1.8
			c-0.7-0.4-1.3-0.8-2-1.3C2141.6,571.8,2142.9,569.6,2144.2,567.6z"/>
		<path id="path4077" class="st0" d="M2154.4,584.9c1.7-1.8,3.5-3.7,5.2-5.5c1.3,1.2,2.6,2.4,3.9,3.7c-0.3,0.3-0.6,0.7-0.9,1
			c-1-0.7-1.8-1.7-2.7-2.5c-0.5,0.2-0.8,0.8-1.2,1.2c0.8,0.8,1.6,1.5,2.4,2.3c-0.3,0.3-0.6,0.7-1,1c-0.7-0.8-1.6-1.5-2.3-2.3
			c-0.8,0.7-1.4,1.5-2.2,2.3C2155.2,585.6,2154.8,585.2,2154.4,584.9z"/>
		<path id="path4079" class="st0" d="M2168.4,700.6c0.2-0.5,0.5-0.9,0.8-1.3c0.7,0.4,1.3,0.9,2,1.3c0.7,0.5,1.6,0.2,2.4,0.4
			c1.1,0,2.2,0.1,3.3,0.2c-0.3,0.5-0.6,1-0.9,1.5c-1.2,0-2.4-0.3-3.6-0.3c0.6,1,1.3,2,1.9,3c-0.3,0.5-0.6,1-1,1.5
			c-0.7-1.4-1.5-2.7-2.3-4.1C2170.5,701.7,2169.1,701.5,2168.4,700.6z"/>
	</g>
	<g id="_x23_232021ff">
		<path id="path4082" class="st0" d="M2030.7,570.1c0.3-0.3,0.7-0.6,1.1-0.8c0.4,0.1,0.4,0.6,0.7,0.8c-0.4,0.3-0.8,0.5-1.1,0.8
			C2031.1,570.7,2030.9,570.4,2030.7,570.1z"/>
	</g>
	<g id="_x23_231d1bff">
		<path id="path4086" class="st0" d="M2152.3,574.9c2-0.7,4.2,0.7,4.7,2.7c0.3,0.9,0,1.8-0.5,2.6c-0.7,1.1-1.7,2.1-3,2.4
			c-2,0.3-4-1.2-4.3-3.2c-0.1-1,0.3-2.1,1-2.9C2150.9,575.9,2151.5,575.2,2152.3,574.9 M2153.1,576.3c-1,0.4-1.9,1.4-2.2,2.5
			c-0.3,1,0.4,2,1.3,2.3c0.7,0.2,1.4,0,2-0.5c0.7-0.6,1.4-1.5,1.4-2.5C2155.5,576.9,2154.2,575.9,2153.1,576.3z"/>
	</g>
	<g id="_x23_211c19ff">
		<path id="path4090" class="st0" d="M2092.8,581.9c0.1-0.2,0.3,0,0.4,0.1c2.3,2.8,4.3,6,5.8,9.3c1.7-1.7,3.5-3.3,5.7-4.2
			c2.2-1,4.7-1,7.1-0.7c-1,2.8-1.7,5.8-1.8,8.8c2.3-1.7,5-2.9,7.9-2.8c0.9,0,1.8,0,2.5,0.6c-0.3,1-0.7,2-1,3.1
			c-0.4,1.5-0.7,3-0.9,4.5c1.6-0.8,3.4-1.3,5.2-1.6c1.5-0.1,3.2-0.1,4.6,0.6c0.4,0.2,1,0.5,0.8,1c-0.7,1-1.7,1.8-2.3,2.9
			c-0.8,1.4-1.4,2.9-1.9,4.4c1.5-0.7,3.1-1.3,4.8-1.3c1.8-0.1,3.8,0,5.4,1c0.8,0.4,1.4,1,1.7,1.9c-2.5,0.9-4.3,2.9-5.8,5
			c-1.7,2.5-3.1,5.2-4.7,7.8c-2.1,3.3-5.4,5.8-9.1,6.8c1.4,0.8,2.7,1.8,3.7,3.1c1.1,1.3,1.7,2.9,2.8,4.3c0.7,0.8,1.5,1.7,2.5,2.2
			c1.4,0.7,3.1,0.5,4.6,0.8c-0.2,1.5-1.1,2.7-2,3.8c-2,2.3-4.4,4.2-7.1,5.4c-2.9,1.2-6.2,1.4-9.3,1c-2-0.3-3.9-0.7-5.8-1.5
			c-0.9-0.4-1.8-0.9-2.1-1.9c-0.5,1.2-1.4,2.1-2.5,2.8c-1.7,1-3.7,1.6-5.6,1.9c-1.4,3.4-2.4,7.1-2.2,10.8c-0.1,2.1,0.2,4.1,0.7,6.1
			c1.5-0.6,3-1,4.6-1.3c2-0.4,4.1-0.3,6.2-0.2c3.1,0.4,6.1,1.8,9.1,2.6c2.6,0.7,5.4,0.7,8.1,0.3c0.2,0.2,0.3,0.4,0.5,0.6
			c3.5,5.8,6.9,11.6,10.4,17.5c0.2,0.3,0.4,0.6,0.5,1c0,0.4-0.3,0.8-0.5,1.2c-0.6,1.4-1.3,2.9-1.2,4.5c0,0.9,0.3,1.7,0.9,2.3
			c0.6,0.6,1.2,1.2,1.8,1.8c-11.9,0.2-23.9-0.1-35.8,0c-0.4,0-0.9-0.1-1.2,0.2c-1.9,1.7-4.5,2.5-7.1,2.4c-2.4,0.1-4.7-0.9-6.5-2.4
			c-0.2-0.1-0.4-0.3-0.6-0.3c-10.1,0-20.2,0.1-30.3,0.1c-1.8,0.1-3.6,0.1-5.4,0.1c0.5-1,1.5-1.8,1.5-3c0.1-1-0.4-2-0.9-2.8
			c-0.8-1.4-1.7-2.6-2.5-3.9c5.3-6.6,10.6-13.3,15.8-19.9c1,0,1.9,0,2.9,0.2c4.5,0.1,9-0.2,13.4-1.4c2-0.6,4.2-0.5,6.2-0.4
			c0.9,0.1,1.8,0.3,2.7,0.4c-0.2-1.6-0.5-3.3-0.5-5c-0.1-3.4,0.4-6.9,1.6-10.2c0.2-0.5,0.4-1,0.5-1.6c-0.8-0.1-1.5-0.3-2.3-0.6
			c-1.8-0.6-3.6-1.4-5-2.7c-0.7-0.6-1.2-1.3-1.9-1.8c-3.2,1.2-6.5,2.5-10,2.5c-1.4,0-2.9,0.1-4.3-0.4c-2.1-0.6-4-1.5-5.8-2.7
			c-1.2-0.8-2.2-1.7-3.1-2.8c-0.8-0.9-1.5-1.8-2-2.9c-0.2-0.4-0.2-1,0.3-1.2c1.1-0.5,2.2-1.1,3-2.2c0.8-1,1.3-2.2,2-3.2
			c1-1.6,2.4-3,3.8-4.3c-2.2-0.5-4.2-1.6-5.7-3.2c-1.6-1.5-2.5-3.5-3.4-5.5c-1.2-2.7-2.2-5.6-4.2-7.9c-0.6-0.7-1.4-1.4-2.2-1.8
			c-0.4-0.3-0.9-0.4-1.2-0.8c0.5-1.5,1.8-2.8,3.3-3.4c2.2-0.8,4.8-0.6,7,0.2c-0.5-1.3-1-2.6-1.7-3.8c-0.7-1.2-1.8-2.2-2.7-3.2
			c-0.2-0.3,0-0.6,0.3-0.7c1.7-1,3.8-1.1,5.6-0.8c2.2,0.5,4.3,1.6,5.8,3.3c0-1.6-0.3-3.1-0.6-4.7c-0.4-1.4-0.9-2.8-1.4-4.2
			c-0.1-0.2,0.2-0.3,0.3-0.4c0.8-0.3,1.7-0.2,2.6-0.2c2.7-0.1,5.3,1.1,7.4,2.8c0.5,0.4,1,0.9,1.4,1.4c0.4-2.3,0.7-4.6,0.9-6.8
			c0.1-1.2-0.4-2.3-0.5-3.5c1.3-0.1,2.6,0,3.8,0.2c2.2,0.5,4.4,1.4,6.1,2.8c0.9,0.7,1.6,1.6,2.3,2.6
			C2088.7,587.6,2090.6,584.6,2092.8,581.9 M2090.5,589.6c-1.3,2.1-2.3,4.4-3.2,6.8c-1,2.6-1.6,5.4-2,8.2c-0.3,1.9-0.2,3.9-0.2,5.8
			c0.3,3.6,1.1,7.2,2.9,10.3c0.9,1.6,2.4,3,4.2,3.6c0.4,0.2,0.8,0.2,1.2,0c1.9-0.7,3.3-2.3,4.1-4.1c1.2-2.7,1.9-5.6,2.3-8.5
			c0.2-2,0.4-4,0.2-6c-0.2-4.7-1.5-9.3-3.4-13.6c-0.9-2.1-2.2-4.1-3.8-5.6C2092,587.4,2091.2,588.5,2090.5,589.6 M2076.4,600.1
			c-0.5,3.5-1,7-0.5,10.4c0.6,3.2,1.9,6.3,3.9,8.8c1.3,1.6,2.9,3,4.9,3.7c0.9,0.3,1.9,0.6,2.9,0.7c-3.3-3.6-4.8-8.5-5-13.3
			c-0.2-5.3,0.9-10.5,2.7-15.5c0.1-0.2,0.1-0.4,0-0.6c-0.5-1.3-1.1-2.5-2-3.5c-1.4-1.5-3.1-2.8-5.2-3.1
			C2077.9,591.9,2077.1,596,2076.4,600.1 M2104.3,590.4c-1.5,1.1-3,2.2-4,3.8c0,0.4,0.3,0.9,0.4,1.3c1.3,4.1,2.1,8.4,2,12.7
			c0.1,3.9-0.6,7.9-2.2,11.5c-0.7,1.6-1.5,3.2-2.7,4.4c0.4,0.2,0.9,0.5,1.4,0.7c1.7-0.9,3.5-1.9,4.7-3.5c2.4-2.9,3.4-6.7,3.7-10.4
			c0.1-2.2,0.1-4.3,0-6.5c-0.2-1.1-0.1-2.2-0.3-3.3c-0.1-2-0.1-4,0-6c0-2,0.4-4,1-6C2106.8,588.9,2105.5,589.7,2104.3,590.4
			 M2066.5,594c0,1.3,0.4,2.6,0.5,3.9c0.2,1.9,0,3.9,0.2,5.8c0,1.7,0.2,3.4,0.4,5.1c0.4,2.3,0.7,4.5,1.7,6.6
			c1.2,2.5,2.8,4.9,4.8,6.7c1.7,1.6,4,2.5,6.3,2.9c1,0.3,2.1,0.3,3.1,0.2c-0.2-0.1-0.3-0.4-0.5-0.3c-1.2-0.8-2.5-1.5-3.6-2.5
			c-0.7-0.7-1.5-1.4-2.2-2.2c-1.6-2.1-2.9-4.5-3.5-7.1c-1.1-4.4-0.6-9,0.1-13.4c0-0.3,0.2-0.7,0-1c-1.1-1.8-2.7-3.5-4.7-4.4
			C2068.3,594,2067.4,593.7,2066.5,594 M2110.9,598.1c-0.3,0.3-0.9,0.6-0.8,1.1c0,1.2,0,2.5,0.1,3.7c0.1,0.7,0,1.5,0.1,2.2
			c0.1,1,0,2,0,3c0,0.8-0.2,1.5-0.1,2.3c-0.2,2.1-0.6,4.3-1.2,6.3c-0.8,2.4-2.1,4.6-3.7,6.5c-0.7,0.9-1.7,1.5-2.5,2.2
			c1.8,0.1,3.5-0.7,4.9-1.7c2.3-1.5,3.9-3.8,5-6.2c1.4-2.8,2-6,2.5-9.1c0.6-3.6,0.8-7.3,1.4-11c0.1-0.7,0.2-1.5,0.1-2.3
			C2114.5,595.4,2112.5,596.6,2110.9,598.1 M2056.9,599.7c0.2,0.9,0.9,1.7,1.3,2.5c1,1.7,1.4,3.6,1.9,5.4c1,3.5,2,7.1,3.5,10.4
			c0.8,1.7,1.9,3.2,3.3,4.4c1.5,1.5,3.2,2.8,5.3,3.4c1.5,0.5,3.2,1,4.8,0.8c-0.7-0.5-1.5-0.8-2.2-1.3c-3.7-2.4-6.3-6-8-10
			c-1.1-2.7-1.6-5.5-1.9-8.4c-0.1-1,0.1-2.1-0.2-3.1c-0.8-1.2-1.8-2.2-3-3C2060.4,600,2058.6,599.5,2056.9,599.7 M2119.6,602.7
			c-0.5,0.3-1,0.5-1.3,0.9c-0.5,3.7-1.1,7.3-2,10.9c-0.3,1.4-0.9,2.7-1.5,4c-0.8,1.5-1.7,3-2.7,4.4c-1,1.3-2.3,2.3-3.6,3.3
			c1.1-0.1,2.2-0.4,3.2-0.8c2.3-0.9,4-2.8,5.4-4.7c1-1.4,2.1-2.8,2.8-4.4c1.4-3.2,2.1-6.7,3.1-10c0.4-1.1,0.9-2.2,1.5-3.2
			c0.3-0.6,0.7-1.1,0.8-1.8C2123.4,601.1,2121.4,601.8,2119.6,602.7 M2051.3,608c-0.3,0-0.5,0.3-0.7,0.5c0.8,1.2,2.1,2.1,2.8,3.4
			c1.8,3.1,2.8,6.5,4.6,9.6c1.1,1.9,2.7,3.4,4.7,4.3c1.9,0.9,4.1,1.1,6.2,0.9c-2.5-1.4-4.7-3.5-6.3-5.9c-0.8-1.2-1.4-2.6-1.9-4
			c-0.8-2-1.3-4.1-1.9-6.1c-0.2-0.7-0.9-1.2-1.5-1.6C2055.6,607.8,2053.4,607.5,2051.3,608 M2127.1,610.1c-1.3,0.6-2.4,1.6-3.3,2.7
			c-0.4,0.5-0.6,1.1-0.8,1.6c-0.7,1.9-1.5,3.8-2.7,5.5c-1.1,1.5-2.3,3.1-3.6,4.4c-1,1.1-2.2,2-3.5,2.7c-0.3,0.1-0.6,0.3-0.8,0.5
			c0.8,0.1,1.7,0.1,2.6,0.1c0.7-0.1,1.5-0.2,2.2-0.5c1.6-0.5,3.1-1.4,4.4-2.3c2.1-1.8,3.5-4.2,4.8-6.5c0.7-1.4,1.4-2.8,2.2-4.2
			c0.6-1,1.1-2.1,1.9-3c0.4-0.6,1-1.1,1.2-1.9C2130.1,609,2128.5,609.4,2127.1,610.1 M2090.8,627c-1,0.1-2,0.3-3,0.7
			c-2.3,0.8-4,2.7-5.3,4.7c-0.9,1.3-1.4,3-1,4.6c0.6,2.9,3.6,5,6.5,4.8c1.6,0,3.2-0.5,4.6-1.3c0.2-0.1,0.6-0.3,0.8,0
			c2.5,1.9,6.3,2,8.8,0c1-0.7,1.8-1.8,2-3.1c0.4-1.6-0.1-3.2-0.8-4.5c-1.8-3.3-5.3-5.7-9.1-6C2093,626.8,2091.9,627,2090.8,627
			 M2069.8,629.2c-1.1,0.1-2.3,0.3-3.4,0.7c-2.1,0.9-3.5,2.8-4.7,4.6c-1.1,1.6-2,3.3-3.3,4.6c2.8,0.9,5.8,0.7,8.7,0.5
			c1.6-0.2,3.3-0.4,4.8-0.9c2.2-0.7,4.2-1.8,6-3.2c0.8-0.8,1.2-1.8,1.7-2.7c0.7-1.3,1.3-2.8,2.5-3.8c-2,0-4-0.1-6-0.1
			C2074,628.9,2071.9,628.8,2069.8,629.2 M2104.2,629.2c0.6,1.5,1.5,2.8,2.1,4.3c0.6,1.5,0.9,3.2,0.9,4.8c0.1,0.7,0.3,1.6,1,2
			c1.5,0.8,3.1,1.4,4.8,1.9c2.7,0.9,5.7,1.1,8.5,0.9c1.9-0.2,3.7-0.7,5.2-1.8c-1.2-0.7-2.4-1.4-3.4-2.4c-1.8-2.1-3.1-4.6-5-6.6
			c-0.8-0.9-1.9-1.7-3.1-1.9c-1.5-0.5-3-0.2-4.5-0.4C2108.6,629.8,2106.4,629.5,2104.2,629.2 M2077.5,639.4c0,1.2,0,2.5,0,3.7
			c0.4-0.3,1-0.5,1.3-0.9c0-1.1-0.1-2.2-0.1-3.3C2078.3,639,2077.9,639.1,2077.5,639.4 M2074.7,640.3c-0.2,0.2,0,0.4-0.1,0.6
			c0,1.2,0,2.4,0,3.7c0.4-0.2,0.8-0.3,1.2-0.5c0.2-0.1,0.1-0.4,0.2-0.5c0-1.2,0-2.4,0-3.6C2075.6,640,2075.1,640.1,2074.7,640.3
			 M2071.8,641c0,1.5,0,3,0,4.4c0.5-0.1,0.9-0.2,1.4-0.3c0-1.5,0-2.9,0-4.4C2072.7,640.8,2072.2,640.9,2071.8,641 M2068.8,641.6
			c0,1.4,0,2.7,0,4.1c0.5,0,1,0,1.5,0c0-1.5,0-2.9,0-4.4C2069.8,641.4,2069.3,641.5,2068.8,641.6 M2059.3,641.6
			c0.6,0.7,1.3,1.3,2,1.9c0-0.5,0-1.1,0-1.6C2060.7,641.9,2060,641.8,2059.3,641.6 M2062.9,641.9c0,0.8,0,1.6,0,2.4
			c0.5,0.2,1,0.4,1.5,0.6c0-1,0-2,0-3C2063.9,641.8,2063.4,642,2062.9,641.9 M2065.9,641.9c0,1.2,0,2.4,0,3.6c0.5,0,0.9,0.1,1.4,0.1
			c0-1.3,0-2.5,0-3.8C2066.8,641.8,2066.3,641.8,2065.9,641.9 M2082.2,642.6c0,0.5,0,1.1,0,1.6c0.4,0.5,0.8,0.8,1.3,1.2
			c0-0.7,0-1.4,0-2.2C2083.1,643.1,2082.6,642.9,2082.2,642.6 M2102.2,643.1c-0.1,1.1,0,2.3,0,3.4c0.5-0.4,1.1-0.8,1.4-1.4
			c-0.1-0.9-0.1-1.7-0.1-2.6C2103,642.7,2102.6,642.9,2102.2,643.1 M2107.2,642.7c0,0.9,0,1.8,0,2.6c0.5,0.4,1.1,0.7,1.7,1
			c0-0.9,0.1-1.9-0.1-2.8C2108.3,643.2,2107.8,642.9,2107.2,642.7 M2092.5,643.6c-0.3,0.2-0.6,0.5-0.6,0.9c0,1.4,0,2.8,0,4.2
			c0.6,0.3,1.3,0.2,2,0.2c0-0.8,0-1.7,0-2.5c0-0.8,0.1-1.6,0.1-2.4C2093.6,643.8,2093,643.2,2092.5,643.6 M2085.2,643.5
			c0,1.1,0,2.1,0,3.2c0.5,0.3,1,0.6,1.5,0.8c0-1.3,0-2.5,0-3.8C2086.2,643.8,2085.7,643.7,2085.2,643.5 M2098.9,643.6
			c0,1.5,0,3,0,4.6c0.5-0.1,1-0.3,1.5-0.5c0-1.4,0-2.8,0-4.3C2100,643.5,2099.4,643.6,2098.9,643.6 M2095.6,644
			c-0.1,1.6,0,3.2-0.1,4.9c0.6,0,1.2-0.2,1.8-0.2c0-1.6,0-3.2,0-4.8C2096.7,643.9,2096.1,643.9,2095.6,644 M2088.4,644
			c0,1.4,0,2.8,0,4.2c0.6,0.2,1.2,0.3,1.8,0.4c0-1.5,0.1-3,0.1-4.4C2089.7,644.1,2089,644,2088.4,644 M2110.4,644.2
			c0,0.9,0,1.7,0,2.6c0.5,0.4,1.1,0.4,1.7,0.5c0-0.9,0-1.7,0-2.6C2111.5,644.6,2111,644.4,2110.4,644.2 M2122.1,645
			c0,0.4,0,0.8,0,1.3c1-0.5,1.8-1.2,2.7-2C2123.9,644.5,2123,644.8,2122.1,645 M2113.6,645.2c0,0.8,0,1.6,0,2.4
			c0.5,0,1.1,0.1,1.6,0.2c0-0.8,0.1-1.7-0.1-2.5C2114.6,645.3,2114.1,645.2,2113.6,645.2 M2119.5,645.4c0,0.6,0,1.2,0,1.8
			c0.4-0.1,0.8-0.2,1.2-0.3c0-0.6,0-1.2,0-1.8C2120.2,645.3,2119.8,645.4,2119.5,645.4 M2116.7,645.5c0,0.8,0,1.5,0,2.3
			c0.4-0.1,1,0,1.3-0.3c0-0.7,0-1.4,0-2C2117.6,645.5,2117.1,645.5,2116.7,645.5 M2089.8,658c-0.4,3.4-0.2,6.9,0.6,10.3
			c0.6,0.3,1.2,0.7,1.9,1.1c0.3-0.1,0.5-0.2,0.7-0.4c-0.6-2.5-1-5-0.9-7.6c0-3.5,0.8-6.9,2-10.2c-0.8,0-1.5,0-2.3-0.1
			C2090.8,653.3,2090.1,655.6,2089.8,658 M2093.5,670.8c0,1.5-0.2,3-0.2,4.5c-0.1,1-0.1,2-0.2,3c-0.2,1.3-0.1,2.7-0.2,4.1
			c0,0.9,0,1.8-0.1,2.7c-0.1,0.9-0.1,1.7-0.1,2.6c0.1,0.3,0.5,0.3,0.8,0.1c2.5-1.7,5.4-2.7,8.3-3.1c3.1-0.4,6.3-0.2,9.4,0.1
			c3.5,0.4,6.9,1.1,10.4,1.7c3.4,0.6,6.8,1.1,10.3,0.9c-2.7-4.6-5.4-9.2-8.2-13.7c-0.5-0.8-0.9-1.6-1.5-2.4c-1.5,0.2-3,0.1-4.5,0.1
			c-3.1-0.3-5.9-1.5-8.8-2.4c-1.5-0.5-3.1-0.8-4.8-0.8C2100.4,668.1,2096.7,668.9,2093.5,670.8 M2081.6,668.8
			c-1.8,0.1-3.5,0.7-5.2,1c-3.8,0.7-7.6,0.9-11.5,0.8c-0.5,0-1-0.1-1.5-0.1c-0.4,0.3-0.7,0.8-1,1.2c-4.1,5.2-8.3,10.4-12.4,15.7
			c1.9,0.1,3.8,0.1,5.7-0.1c3.1-0.3,6.2-0.9,9.4-1.4c4-0.7,8-1.4,12.1-1.3c1.5,0,3.1-0.1,4.6,0.2c3.2,0.4,6.3,1.4,8.9,3.3
			c0-0.8,0.2-1.6,0.2-2.4c0-0.8,0-1.5,0.1-2.3c0.1-1.1,0-2.2,0.2-3.3c0.1-0.9,0-1.8,0.1-2.7c0.1-0.9,0-1.8,0.1-2.7
			c0.1-1.1,0.1-2.2,0.1-3.3c-1.4-1-3-1.8-4.8-2C2085,668.7,2083.3,668.7,2081.6,668.8 M2074.7,686.1c-5.1,0.3-10.1,1.4-15.1,2.2
			c-3.5,0.5-7,1-10.5,0.6c0.2,0.2,0.3,0.7,0.7,0.6c2,0,3.9,0.1,5.9-0.1c4.5-0.3,9-1.1,13.4-1.8c1.6-0.2,3.3-0.5,5-0.6
			c1.1-0.2,2.3-0.1,3.5-0.2c1.1,0.1,2.1,0,3.2,0.2c2.8,0.3,5.7,1,8.1,2.6c0.3,0.2,0.5-0.3,0.7-0.4c-0.8-0.5-1.6-1-2.5-1.4
			c-3-1.4-6.4-1.7-9.6-1.8C2076.5,685.9,2075.6,686.1,2074.7,686.1 M2094.2,689.2c0.3,0.4,0.6,0.8,0.9,1.1c2.2-1.6,4.8-2.7,7.5-3.2
			c3.6-0.6,7.2-0.4,10.8,0.1c3.5,0.5,7,1.2,10.5,1.7c2.6,0.4,5.3,0.5,7.9,0.4c0.2,0,0.3-0.3,0.5-0.4c-0.9,0-1.8,0.1-2.8,0
			c-2.1,0-4.2-0.2-6.2-0.6c-3.3-0.5-6.6-1.2-9.9-1.7c-3.4-0.5-6.9-0.8-10.3-0.5C2100,686.4,2096.9,687.4,2094.2,689.2 M2065.1,689.5
			c-3.3,0.5-6.7,0.9-10.1,1.2c-1.6,0-3.1,0.1-4.7,0c0,0.1,0.1,0.2,0.1,0.3c0.5,0.1,1,0.2,1.5,0.2c5.8,0.4,11.5-0.9,17.2-1.7
			c3.7-0.5,7.4-0.9,11.1-0.5c2.8,0.2,5.5,1,8,2.2c0-0.1,0.1-0.2,0.1-0.4c-2.5-1.6-5.5-2.3-8.4-2.5c-1.8,0-3.6-0.1-5.4,0.1
			C2071.3,688.4,2068.2,689,2065.1,689.5 M2095.8,691.3c0.1,0.2,0.2,0.4,0.4,0.5c2.1-1.2,4.3-2.2,6.7-2.6c4-0.9,8.2-0.6,12.2,0
			c5.4,0.7,10.9,2.3,16.4,1.5c0,0,0-0.1,0-0.1c-1,0.2-2.1,0.2-3.1,0.1c-5.8-0.3-11.5-1.9-17.3-2.5c-1.9-0.2-3.7-0.2-5.6-0.2
			C2102.1,688.3,2098.6,689.3,2095.8,691.3 M2088.2,695.2c-0.2,0.7-0.5,1.7,0,2.3c0.6,0.8,1.7,1,2.6,1.1c1.4,0,2.9,0.1,4.1-0.6
			c0.3-0.3,0.8-0.6,0.8-1.1c0.1-1-0.4-2-0.8-2.8c-0.8-1.6-1.9-3.1-3.2-4.4C2090.3,691.2,2088.9,693.1,2088.2,695.2 M2097.9,692.4
			c-0.4,0.2-0.8,0.4-1.1,0.7c0.1,0.3,0.4,0.3,0.6,0.2c2.6-1.2,5.4-2,8.2-2.2c1.6-0.3,3.2-0.2,4.8-0.2c2.2,0,4.4,0.3,6.6,0.5
			c3.1,0.3,6.1,1,9.2,1.4c1.5,0.2,3,0.2,4.5-0.1c0.3,0,0.4-0.4,0.5-0.6c-4.3,0.5-8.5-0.3-12.8-1c-3.7-0.6-7.4-1.2-11.2-1.1
			C2104.1,690.1,2100.8,690.8,2097.9,692.4 M2069.6,690.5c-3.1,0.4-6.2,0.9-9.3,1.4c-1.1,0.1-2.1,0.2-3.2,0.3c-2,0.2-4,0.1-6,0.1
			c0.9,0.3,1.8,0.4,2.7,0.4c1.4,0.1,2.8,0.2,4.1,0.2c3.1,0.1,6.2-0.4,9.3-1c1.8-0.4,3.5-0.7,5.3-0.9c1.4-0.2,2.8-0.1,4.2-0.1
			c2.8,0.1,5.6,0.8,8.3,1.5c0.6,0.2,1.2,0.4,1.9,0.5c0.1-0.3,0.3-0.6,0.4-1c-2.2-1.1-4.6-1.7-7.1-1.9c-1.7-0.1-3.4-0.1-5.1-0.1
			C2073.3,690,2071.5,690.3,2069.6,690.5 M2068.2,693c-3.5,0.7-7.1,1.3-10.7,1.1c-1.9,0.1-3.8-0.2-5.7-0.4c0,0.1,0,0.3,0,0.4
			c3.2,0.5,6.4,0.7,9.6,0.5c3.8-0.1,7.5-1.1,11.3-1.2c1.8,0,3.6-0.1,5.4,0.1c1.8,0.1,3.5,0.5,5.3,0.8c0.9,0.2,1.8,0.5,2.8,0.6
			c0-0.3,0.1-0.5,0.1-0.8c-2.8-0.9-5.6-1.6-8.6-1.9C2074.6,691.9,2071.4,692.4,2068.2,693 M2107.5,692.1c-3.4,0.2-6.9,1-10,2.4
			c0,0.2,0,0.4,0,0.6c1.3-0.3,2.6-0.8,3.9-1c3.4-0.8,6.9-1,10.3-0.9c1.1,0.1,2.2,0,3.3,0.2c3.4,0.2,6.7,0.8,10.1,1.1
			c1.6,0.1,3.1,0.1,4.7,0c0.4,0,0.7-0.1,1.1-0.2c0-0.1,0-0.3,0-0.4c-0.6,0-1.1,0.2-1.7,0.2c-3.5,0.1-7-0.8-10.5-1.3
			c-1.7-0.2-3.4-0.4-5.1-0.6C2111.7,692.1,2109.6,692.1,2107.5,692.1 M2066.8,695.2c-4.9,0.8-9.8,0.9-14.7,0.2
			c-0.1,0.3-0.1,0.6-0.2,1c7.3,0,14.6,0,22,0c1.9,0,3.7,0.1,5.6-0.1c1.7,0,3.4,0,5.1,0c0.5,0,1,0.2,1.4,0.5c0-0.2,0-0.4,0-0.6
			c-1.6-0.3-3.2-0.8-4.8-1c-3.3-0.6-6.8-0.7-10.2-0.4C2069.5,694.8,2068.2,695,2066.8,695.2 M2099.2,696c-0.4,0-0.7,0.2-1,0.3
			c2.5,0.1,4.9,0,7.4,0c8.6,0,17.2,0.1,25.9,0c-0.1-0.3-0.2-0.5-0.3-0.8c-0.5,0.1-1,0.2-1.4,0.2c-1.8,0-3.5,0.1-5.3,0
			c-4.9-0.7-9.9-1.3-14.9-1.2C2106.1,694.5,2102.6,695,2099.2,696z"/>
	</g>
	<g id="_x23_231f1cff">
		<path id="path4093" class="st0" d="M2164.4,595.5c2-1.5,4.1-2.9,6.1-4.4c1.1,1.5,2.2,3,3.2,4.5c-0.3,0.3-0.7,0.5-1.1,0.8
			c-0.8-1.1-1.5-2.2-2.3-3.2c-0.5,0.2-0.9,0.6-1.3,0.9c0.5,0.6,1,1.3,1.5,2c0.2,0.3,0.5,0.6,0.6,1c-0.3,0.3-0.7,0.5-1,0.8
			c-0.7-1-1.3-2-2.1-2.9c-0.6,0.1-1.1,0.7-1.5,1c0.1,0.3,0.3,0.5,0.4,0.7c0.6,0.9,1.3,1.8,1.9,2.7c-0.4,0.2-0.7,0.7-1.2,0.7
			C2166.5,598.6,2165.4,597.1,2164.4,595.5z"/>
		<path id="path4095" class="st0" d="M1991.3,643.1c1.3-0.8,2.6-1.7,3.9-2.4c0,0.3,0.1,0.7,0.1,1c-1.2,0.9-2.2,2-3.2,3
			C1991.8,644.2,1991.5,643.7,1991.3,643.1z"/>
		<path id="path4097" class="st0" d="M2074.3,672.5c0.7-0.1,1.3-0.2,2-0.3c0.1,0.3,0.2,0.7,0.3,1c-0.7,0.1-1.5,0.3-2.2,0.2
			C2074.4,673.2,2074.3,672.9,2074.3,672.5z"/>
		<path id="path4099" class="st0" d="M2106.6,679.4c0.9,0,1.8,0.3,2.7,0.4c-0.1,0.4-0.2,0.8-0.4,1.2c-0.9-0.1-1.7-0.3-2.6-0.5
			C2106.5,680.2,2106.5,679.8,2106.6,679.4z"/>
		<path id="path4101" class="st0" d="M2074.9,680c0.8-0.2,1.7-0.4,2.6-0.4c0.1,0.4,0.1,0.8,0.2,1.2c-0.9,0-1.7,0.3-2.6,0.4
			C2075,680.8,2074.9,680.4,2074.9,680z"/>
	</g>
	<g id="_x23_23211fff">
		<path id="path4106" class="st0" d="M2004.8,600.6c0.4-0.1,0.6,0.3,1,0.5c-0.3,0.4-0.5,0.8-0.8,1.1c-0.3-0.2-0.6-0.4-0.9-0.6
			C2004.3,601.3,2004.5,600.9,2004.8,600.6z"/>
	</g>
	<g id="_x23_221e1cff">
		<path id="path4110" class="st0" d="M1995.9,617.8c0.7-1.1,2-1.7,3.3-2c0.5-0.1,1.1-0.3,1.6-0.1c-0.2,0.3-0.3,0.7-0.4,1.1
			c-1.1,0.2-2.3,0.4-3.1,1.2c-0.5,0.5-0.7,1.5-0.1,2c0.6,0.2,1.2,0,1.8-0.2c-0.2,0.4-0.3,0.9-0.6,1.3c-0.8,0.7-2.2,0.5-2.7-0.5
			C1995.2,619.8,1995.5,618.7,1995.9,617.8z"/>
		<path id="path4112" class="st0" d="M2083.1,674.2c1.7-0.1,3.3,0.4,4.8,1.2c-0.2,0.3-0.4,0.7-0.7,0.9c-0.6-0.2-1.2-0.5-1.8-0.7
			c-0.8-0.2-1.6-0.3-2.3-0.4C2083.1,674.8,2083.1,674.5,2083.1,674.2z"/>
		<path id="path4114" class="st0" d="M2075.5,677.4c0.9-0.1,1.7-0.4,2.6-0.4c0.1,0.4,0.1,0.7,0.2,1.1c-0.8,0.1-1.6,0.3-2.4,0.4
			C2075.7,678.1,2075.6,677.8,2075.5,677.4z"/>
		<path id="path4116" class="st0" d="M2179.3,677.3c1.1,0.2,2.2,0.7,3.3,1c1.3,0.4,2.6,0.8,3.8,1.3c-0.3,0.7-0.5,1.4-0.7,2.1
			c-1.9,0-3.8-0.5-5.7-0.4c0.8,0.7,1.8,1.2,2.7,1.8c0.6,0.4,1.3,0.8,2,1.2c-0.2,0.8-0.5,1.5-0.7,2.2c-2.4-0.8-4.7-1.6-7.1-2.4
			c0.1-0.5,0.3-1,0.5-1.4c1.9,0.7,3.9,1.3,5.8,2c-1.8-1.2-3.6-2.2-5.4-3.3c0.2-0.5,0.3-1,0.5-1.5c2,0.2,4.1,0.6,6.1,0.6
			c-1.9-0.6-3.8-1.3-5.7-1.9C2179,678.2,2179.1,677.7,2179.3,677.3z"/>
		<path id="path4118" class="st0" d="M2114.2,679.1c0-0.3,0.1-0.7,0.2-1c0.9,0.2,1.9,0.2,2.9,0.3c0.3,0.2,0.1,0.7,0.1,1.1
			c-0.8,0-1.7-0.1-2.5-0.2C2114.6,679.2,2114.3,679.2,2114.2,679.1z"/>
		<path id="path4120" class="st0" d="M2070.2,680.7c1.1,0,2.1-0.3,3.2-0.4c0.1,0.4,0.2,0.7,0.3,1.1c-1.1,0.2-2.2,0.4-3.3,0.5
			C2070.3,681.5,2070.2,681.1,2070.2,680.7z"/>
		<path id="path4122" class="st0" d="M2120,682.6c0.1-0.4,0.2-0.8,0.3-1.2c1,0.2,2.1,0.4,3.1,0.3c0,0.4,0,0.8,0,1.2
			C2122.2,683,2121.1,682.9,2120,682.6z"/>
		<path id="path4124" class="st0" d="M2068.1,734.6c0.7-0.3,1.5-0.4,2.2-0.1c1.3,0.4,2.2,1.4,3.2,2.2c0.3,0.2,0.1,0.7-0.2,0.5
			c-0.9-0.6-1.7-1.3-2.8-1.5c-0.5-0.1-1.1,0.1-1.6,0C2068.6,735.4,2068.3,735,2068.1,734.6z"/>
	</g>
	<g id="_x23_23211eff">
		<path id="path4145" class="st0" d="M1991.2,656.9c1.2-0.9,2.5-1.8,3.8-2.7c0,0.3,0.1,0.7-0.2,0.9c-1,0.9-1.9,2-3,2.8
			C1991.6,657.6,1991.4,657.2,1991.2,656.9z"/>
	</g>
	<g id="_x23_22201eff">
		<path id="path4148" class="st0" d="M1992.4,659c0.8-1,1.6-2.1,2.6-3.1c0,0.7-0.4,1.4-0.7,2c-0.4,0.7-0.7,1.4-1,2.1
			C1993,659.7,1992.7,659.4,1992.4,659z"/>
	</g>
	<g id="_x23_211d1dff">
		<path id="path4153" class="st0" d="M2100.4,671c0.8,0,1.5,0,2.3,0c0,0.3,0,0.7,0,1c-0.7,0-1.3,0-2-0.1
			C2100.4,671.8,2100.5,671.3,2100.4,671z"/>
	</g>
	<g id="_x23_211e1eff">
		<path id="path4156" class="st0" d="M2081.9,671.2c0.8,0,1.6,0,2.3,0.1c0,0.3-0.1,0.6-0.2,0.9c-0.7-0.1-1.3,0-2-0.1
			C2081.8,672,2081.9,671.5,2081.9,671.2z"/>
	</g>
	<g id="_x23_23201fff">
		<path id="path4159" class="st0" d="M2096,672.3c1-0.5,2-1,3.1-1c0.1,0.3,0.2,0.6,0.2,0.9c-0.9,0.2-1.8,0.5-2.6,1
			C2096.5,672.9,2096.2,672.6,2096,672.3z"/>
		<path id="path4161" class="st0" d="M2070.4,675.4c1,0,1.9-0.2,2.9-0.2c0,0.4,0,0.7,0.1,1.1c-1,0-1.9,0.2-2.9,0.2
			C2070.4,676.1,2070.4,675.8,2070.4,675.4z"/>
	</g>
	<g id="_x23_231e1dff">
		<path id="path4164" class="st0" d="M2077.6,672c0.9-0.2,1.8-0.4,2.8-0.5c0.1,0.3,0.2,0.7,0.2,1c-0.9,0.2-1.8,0.3-2.7,0.6
			C2077.8,672.7,2077.7,672.3,2077.6,672z"/>
		<path id="path4166" class="st0" d="M2106.2,676.7c0.9,0.1,1.7,0.3,2.6,0.5c-0.1,0.4-0.3,0.7-0.4,1.1c-0.8-0.2-1.6-0.4-2.4-0.5
			C2106.1,677.4,2106.2,677.1,2106.2,676.7z"/>
	</g>
	<g id="_x23_23201eff">
		<path id="path4169" class="st0" d="M2085.5,671.6c1.1,0.1,2.1,0.6,3,1.1c-0.2,0.3-0.4,0.6-0.7,0.8c-0.8-0.4-1.7-0.8-2.5-1
			C2085.3,672.2,2085.4,671.9,2085.5,671.6z"/>
	</g>
	<g id="_x23_221d1dff">
		<path id="path4172" class="st0" d="M2111.8,672.6c0.9,0,1.7,0.3,2.5,0.2c0,0.4,0,0.7,0,1.1c-0.9,0-1.8-0.2-2.6-0.3
			C2111.7,673.3,2111.8,673,2111.8,672.6z"/>
		<path id="path4174" class="st0" d="M2070.1,672.9c0.9,0,1.8-0.1,2.7-0.1c0,0.3,0,0.6,0.1,0.9c-0.9,0.1-1.8,0.2-2.7,0.2
			C2070.1,673.5,2070.1,673.2,2070.1,672.9z"/>
	</g>
	<g id="_x23_221e1dff">
		<path id="path4177" class="st0" d="M2066.5,672.8c0.6,0,1.2,0,1.8,0c0,0.3,0,0.7,0,1c-0.6,0-1.2,0-1.8-0.1
			C2066.5,673.4,2066.5,673.1,2066.5,672.8z"/>
		<path id="path4179" class="st0" d="M2102.4,679.3c0.9-0.2,1.8-0.1,2.7-0.1c0,0.4-0.1,0.8-0.1,1.2c-0.8,0-1.6,0-2.4,0
			C2102.5,680,2102.5,679.7,2102.4,679.3z"/>
	</g>
	<g id="_x23_231e1eff">
		<path id="path4182" class="st0" d="M2115.9,674.2c0.1-0.4,0.2-0.7,0.3-1c0.6,0.2,1.2,0.2,1.9,0.2c0,0.3,0,0.7,0,1
			C2117.4,674.3,2116.6,674.2,2115.9,674.2z"/>
	</g>
	<g id="_x23_201d1aff">
		<path id="path4185" class="st0" d="M2103,673.8c0.9,0,1.8,0.2,2.7,0.3c-0.1,0.3-0.2,0.6-0.2,0.9c-0.8-0.1-1.7-0.2-2.5-0.3
			C2103,674.5,2103,674.2,2103,673.8z"/>
	</g>
	<g id="_x23_211e1dff">
		<path id="path4188" class="st0" d="M2078.8,674.4c0.9-0.1,1.7-0.2,2.6-0.3c0,0.3,0,0.7,0,1c-0.8,0-1.6,0.2-2.4,0.3
			C2079,675.1,2078.9,674.7,2078.8,674.4z"/>
	</g>
	<g id="_x23_211f1cff">
		<path id="path4191" class="st0" d="M2107.2,674.4c0.9,0,1.7,0.3,2.5,0.4c0.1,0.3-0.1,0.7-0.2,1c-0.9-0.1-1.8-0.3-2.7-0.5
			C2107,675.1,2107.1,674.7,2107.2,674.4z"/>
	</g>
	<g id="_x23_231f1dff">
		<path id="path4194" class="st0" d="M2074.7,675c0.9,0,1.7-0.3,2.6-0.4c0.1,0.3,0.2,0.7,0.2,1c-0.9,0.2-1.7,0.3-2.6,0.4
			C2074.9,675.7,2074.8,675.3,2074.7,675z"/>
		<path id="path4196" class="st0" d="M2083.4,679.8c1.1,0.1,2.2,0.5,3.1,1.2c-0.3,0.3-0.5,0.6-0.8,0.9c-0.8-0.4-1.6-0.7-2.5-0.9
			C2083.3,680.6,2083.3,680.2,2083.4,679.8z"/>
	</g>
	<g id="_x23_231d1fff">
		<path id="path4199" class="st0" d="M2111.3,675.1c1,0.1,1.9,0.2,2.9,0.3c0,0.3,0,0.6-0.1,0.9c-1,0.1-2-0.1-3-0.2
			C2111.1,675.8,2111.2,675.4,2111.3,675.1z"/>
	</g>
	<g id="_x23_211d1cff">
		<path id="path4202" class="st0" d="M2064.3,676.6c0-0.4-0.1-0.9,0.2-1.1c1.4,0.2,2.8,0.1,4.2,0.1c0,0.4,0,0.7,0,1.1
			C2067.2,676.6,2065.7,676.6,2064.3,676.6z"/>
	</g>
	<g id="_x23_211e1cff">
		<path id="path4205" class="st0" d="M2116,675.6c1.3,0.1,2.5,0.3,3.8,0.3c0.1,0.4,0.1,0.8,0.1,1.2c-1.3,0-2.5-0.3-3.8-0.3
			C2115.6,676.6,2116,676,2116,675.6z"/>
		<path id="path4207" class="st0" d="M2115.2,682c0.1-0.4,0.2-0.8,0.2-1.2c1,0.2,2.1,0.4,3.2,0.3c0,0.4,0,0.8,0,1.2
			C2117.4,682.4,2116.3,682.2,2115.2,682z"/>
	</g>
	<g id="_x23_221d1cff">
		<path id="path4210" class="st0" d="M2101.4,676.6c1.1-0.2,2.2-0.2,3.3,0c-0.1,0.4-0.1,0.7-0.2,1.1c-1-0.1-1.9-0.1-2.9,0
			C2101.6,677.3,2101.5,677,2101.4,676.6z"/>
	</g>
	<g id="_x23_231d1dff">
		<path id="path4213" class="st0" d="M2079.7,676.8c1.1,0,2.2-0.1,3.2,0.1c0,0.4-0.1,0.7-0.2,1.1c-0.9-0.1-1.9,0-2.8-0.1
			C2079.6,677.6,2079.6,677.2,2079.7,676.8z"/>
	</g>
	<g id="_x23_231d1cff">
		<path id="path4216" class="st0" d="M2097.2,677.9c0.8-0.4,1.7-0.7,2.5-1c0.2,0.3,0.3,0.7,0.5,1.1c-0.8,0.2-1.5,0.6-2.3,0.8
			C2097.6,678.5,2097.4,678.2,2097.2,677.9z"/>
	</g>
	<g id="_x23_221f1dff">
		<path id="path4219" class="st0" d="M2110.1,677.5c0.9,0.1,1.7,0.4,2.6,0.4c0,0.4-0.1,0.7-0.1,1.1c-1,0-1.9-0.3-2.8-0.4
			C2109.9,678.2,2110,677.8,2110.1,677.5z"/>
		<path id="path4221" class="st0" d="M2119.2,678.4c0.5,0.1,0.9,0.3,1.4,0.3c0.5,0,0.9-0.2,1.4-0.3c0.2,0.3,0.3,0.7,0.5,1
			c-1.2,0.4-2.5,0.5-3.7,0C2118.9,679.1,2119,678.7,2119.2,678.4z"/>
	</g>
	<g id="_x23_211e1bff">
		<path id="path4224" class="st0" d="M2062.1,678.4c1.1,0,2.1,0.1,3.2,0.1c0,0.4,0,0.8,0,1.2c-1.1,0.1-2.2-0.1-3.2-0.1
			C2062.1,679.1,2062.1,678.7,2062.1,678.4z"/>
		<path id="path4226" class="st0" d="M2065.4,681.1c1.1,0,2.2-0.2,3.3-0.2c0,0.4,0.1,0.8,0.2,1.2c-1.2,0-2.3,0.3-3.4,0.2
			C2065.5,681.9,2065.4,681.5,2065.4,681.1z"/>
	</g>
	<g id="_x23_221f1eff">
		<path id="path4229" class="st0" d="M2066.9,678.4c1,0,2-0.2,3-0.2c0,0.4,0.1,0.7,0.1,1.1c-1,0.2-2,0.2-3,0.3
			C2067,679.2,2066.9,678.8,2066.9,678.4z"/>
	</g>
	<g id="_x23_22201dff">
		<path id="path4232" class="st0" d="M2097.6,680.7c0.9-0.6,2-1.1,3.2-1.1c0.1,0.4,0.1,0.8,0.2,1.2c-0.9,0-1.6,0.4-2.4,0.8
			C2098.2,681.4,2097.9,681,2097.6,680.7z"/>
		<path id="path4234" class="st0" d="M2134.3,738.6c0.6,0,1.2,0,1.7,0.3c0.9,0.6,1.5,1.6,2,2.5c0.3,0.5,0.6,0.9,0.6,1.5
			c-0.2,0-0.3,0-0.5,0.1c-0.5-1.1-1.3-2.1-2.3-2.7c-0.4-0.2-0.8-0.2-1.2-0.3C2134.5,739.6,2134.4,739.1,2134.3,738.6z"/>
	</g>
	<g id="_x23_fcfbf9ff">
	</g>
</g>
</svg>
